<svg xmlns="http://www.w3.org/2000/svg">
<defs>
<font id="MarkoOne-Regular" horiz-adv-x="1737" >
  <font-face 
    font-family="Marko One"
    font-weight="400"
    font-stretch="normal"
    units-per-em="2048"
    panose-1="2 0 0 0 0 0 0 0 0 0"
    ascent="1638"
    descent="-410"
    x-height="1054"
    cap-height="1444"
    bbox="-113 -727 3464 2019"
    underline-thickness="102"
    underline-position="-205"
    unicode-range="U+0020-2212"
  />
<missing-glyph horiz-adv-x="1976" 
d="M1227 553l149 199q-45 39 -76 53l-151 -191q-109 87 -199 150q-41 -47 -53 -80l186 -147l-147 -191q1 -9 30.5 -32t34.5 -23h5l159 180l191 -147q8 2 32 32t23 37q-15 14 -78 68t-106 92zM92 856l524 -45q73 15 160 31.5t137.5 26.5t109.5 22t92 20t69 19t56 22
q49 26 67 54q61 108 125.5 154t134 46t114.5 -14v2l152 53q6 0 6 -4v-2l-51 -141l143 6q5 0 5 -3q-1 -2 -1 -3l-131 -135l-2 2q-5 -485 -493 -817q0 -24 -11.5 -37t-25.5 -13l-25 -24q132 -47 195 -78l43 1q75 0 127 -38v-5q0 -3 -3.5 -5.5t-4.5 -3.5q-60 28 -83 28t-36 -2
q54 -29 76 -61q-3 -9 -19 -12q-65 65 -126 65q-24 0 -34.5 -2t-15 -2.5t-13.5 -4t-12.5 -5t-15.5 -7t-17 -5.5h-7q-6 0 -7 10q20 22 33 26t28.5 8.5t26.5 8.5q-48 26 -113 48.5t-65 29.5q0 12 23 30q-15 0 -25.5 14t-13.5 25h-55q-61 0 -113 8q-18 -48 -48 -48q-4 0 -7 1
q-24 -13 -31 -20q132 -84 172 -117q7 -2 33.5 -6t40.5 -8q43 -12 73 -53q0 -8 -4 -10.5t-6 -4.5q-26 24 -43 32.5t-57 14.5q40 -25 55 -80q-3 -9 -8 -9t-8 1q-32 51 -63 75.5t-83 24.5t-106 -14q-6 9 -6 17q29 23 88 23q2 0 14.5 0.5t13.5 0.5q-27 23 -68 49q-85 54 -85 68
q0 10 10.5 17t15.5 12q-15 15 -15 35t1 30q-163 89 -275 229q-83 104 -155 224q-2 3 -3 5t-2.5 4.5t-6.5 5t-43.5 15.5t-50 17t-45.5 15.5t-48 17.5t-42 17t-43.5 19t-36.5 19q-79 42 -79 66t23 24z" />
    <glyph glyph-name=".notdef" horiz-adv-x="1976" 
d="M1227 553l149 199q-45 39 -76 53l-151 -191q-109 87 -199 150q-41 -47 -53 -80l186 -147l-147 -191q1 -9 30.5 -32t34.5 -23h5l159 180l191 -147q8 2 32 32t23 37q-15 14 -78 68t-106 92zM92 856l524 -45q73 15 160 31.5t137.5 26.5t109.5 22t92 20t69 19t56 22
q49 26 67 54q61 108 125.5 154t134 46t114.5 -14v2l152 53q6 0 6 -4v-2l-51 -141l143 6q5 0 5 -3q-1 -2 -1 -3l-131 -135l-2 2q-5 -485 -493 -817q0 -24 -11.5 -37t-25.5 -13l-25 -24q132 -47 195 -78l43 1q75 0 127 -38v-5q0 -3 -3.5 -5.5t-4.5 -3.5q-60 28 -83 28t-36 -2
q54 -29 76 -61q-3 -9 -19 -12q-65 65 -126 65q-24 0 -34.5 -2t-15 -2.5t-13.5 -4t-12.5 -5t-15.5 -7t-17 -5.5h-7q-6 0 -7 10q20 22 33 26t28.5 8.5t26.5 8.5q-48 26 -113 48.5t-65 29.5q0 12 23 30q-15 0 -25.5 14t-13.5 25h-55q-61 0 -113 8q-18 -48 -48 -48q-4 0 -7 1
q-24 -13 -31 -20q132 -84 172 -117q7 -2 33.5 -6t40.5 -8q43 -12 73 -53q0 -8 -4 -10.5t-6 -4.5q-26 24 -43 32.5t-57 14.5q40 -25 55 -80q-3 -9 -8 -9t-8 1q-32 51 -63 75.5t-83 24.5t-106 -14q-6 9 -6 17q29 23 88 23q2 0 14.5 0.5t13.5 0.5q-27 23 -68 49q-85 54 -85 68
q0 10 10.5 17t15.5 12q-15 15 -15 35t1 30q-163 89 -275 229q-83 104 -155 224q-2 3 -3 5t-2.5 4.5t-6.5 5t-43.5 15.5t-50 17t-45.5 15.5t-48 17.5t-42 17t-43.5 19t-36.5 19q-79 42 -79 66t23 24z" />
    <glyph glyph-name=".null" horiz-adv-x="0" 
 />
    <glyph glyph-name="nonmarkingreturn" horiz-adv-x="682" 
 />
    <glyph glyph-name="space" unicode=" " horiz-adv-x="614" 
 />
    <glyph glyph-name="exclam" unicode="!" horiz-adv-x="674" 
d="M232.5 223q53.5 52 118.5 52t106.5 -39t41.5 -108t-61 -128q-46 -40 -109 -40t-106.5 39.5t-43.5 105.5t53.5 118zM449 422q-57 -25 -111.5 -25t-106.5 13q0 3 -5 38.5t-9 70.5t-10 98t-11 144t-10 185q-10 203 -14 547q112 19 193.5 19t132.5 -19q-44 -569 -49 -1071z
" />
    <glyph glyph-name="quotedbl" unicode="&#x22;" horiz-adv-x="735" 
d="M246 1067q-21 -4 -52.5 -4t-54.5 8q-48 308 -78 407l-10 33q43 39 129.5 39t134.5 -30q0 -140 -69 -453zM684 1520q0 -145 -70 -453q-21 -4 -52 -4t-54 8q-48 308 -78 407l-10 33q44 39 129 39t135 -30z" />
    <glyph glyph-name="numbersign" unicode="#" horiz-adv-x="1159" 
d="M883 578l151 -9q6 -18 6 -64t-14 -77h-164l-55 -416q-14 -10 -75.5 -10t-76.5 12q0 65 39 414h-227l-55 -416q-14 -10 -75.5 -10t-76.5 12q0 80 39 414h-174q-11 11 -11 66.5t13 68.5q77 7 190 10q31 244 45 340h-169q-12 12 -12 67t14 69q77 7 188 10q43 304 59 366
q28 7 77 7t81 -13l-47 -356q76 2 225 2q43 298 60 360q28 7 76.5 7t80.5 -13l-49 -356q34 -1 156 -8q6 -19 6 -65t-14 -77h-166zM715 580q12 109 43 333h-226l-45 -335q76 2 228 2z" />
    <glyph glyph-name="dollar" unicode="$" horiz-adv-x="1163" 
d="M1005.5 1056q-23.5 -9 -41.5 -9h-39t-57 9q-71 17 -71 23v10q0 188 -125 226q6 -203 6 -481q183 -100 225 -136.5t78 -74t55 -73.5q45 -89 45 -183q0 -153 -111 -246.5t-294 -114.5q-3 -115 -8 -186q-22 -6 -58 -6t-67 12v176q-213 10 -334 107q-113 89 -113 187
q0 58 31 85t101 27h8q59 0 114 -33q0 -114 45.5 -177.5t147.5 -70.5v500q-19 12 -56 33.5t-58.5 34t-55.5 34t-55 37t-49 38.5t-45 42.5t-36 45.5t-29 52q-24 61 -24 119q0 159 113.5 254t294.5 113v157q11 10 57.5 10t61.5 -12q6 -69 8 -151q287 -14 376 -183
q25 -46 25 -81t-7 -54.5t-21 -35t-37.5 -24.5zM393 1116q0 -62 38.5 -110.5t111.5 -96.5v408q-150 -32 -150 -201zM678 137q119 34 119 182q0 114 -119 216v-398z" />
    <glyph glyph-name="percent" unicode="%" horiz-adv-x="1704" 
d="M772 1135q0 -176 -98 -273.5t-266 -97.5q-125 0 -210 96t-85 247.5t102 250t270 98.5q116 0 201.5 -93.5t85.5 -227.5zM320.5 1222q-9.5 -49 -9.5 -130t45 -153.5t111 -72.5q111 0 111 228q0 111 -41.5 182.5t-110.5 71.5q-41 0 -68.5 -38.5t-37 -87.5zM1591 354
q0 -176 -98 -273t-266 -97q-125 0 -210 95.5t-85 247t102.5 250.5t270.5 99q115 0 200.5 -93.5t85.5 -228.5zM1139.5 441.5q-9.5 -48.5 -9.5 -129.5t45 -153.5t111 -72.5q111 0 111 227q0 112 -41.5 183t-110.5 71q-41 0 -68.5 -38.5t-37 -87zM1292 1524l-719 -1614
q-14 -10 -76.5 -10t-74.5 12q28 108 326 772.5t387 845.5q24 6 76.5 6t80.5 -12z" />
    <glyph glyph-name="ampersand" unicode="&#x26;" horiz-adv-x="1683" 
d="M1178 352q236 -151 390 -151h5q17 -37 17 -74q0 -72 -61.5 -120t-158.5 -48q-148 0 -364 141q-155 -141 -406.5 -141t-372.5 92t-121 281q0 111 71 219t208 186q-113 189 -113 328q0 183 117.5 291t308.5 108t288.5 -77.5t97.5 -198t-100 -240.5t-279 -190
q162 -188 374 -340q14 28 26 70q23 79 -5 85q-2 0 -121 9q-6 32 -6 53t6 57q66 8 179 8t335 -26q6 -29 6 -53.5t-10 -61.5l-94 4h-22t-30 -3t-24 -6t-17.5 -12t-10.5 -10t-19 -26t-94 -154zM552.5 127q70.5 -37 135.5 -37q141 0 221 78q-265 200 -452 459
q-68 -116 -68 -215.5t46.5 -173.5t117 -111zM512 1137q0 -114 113 -277q82 57 135 155t53 175q0 158 -149 158q-114 0 -141 -104q-11 -43 -11 -107z" />
    <glyph glyph-name="quotesingle" unicode="'" horiz-adv-x="367" 
d="M246 1067q-21 -4 -52.5 -4t-54.5 8q-48 308 -78 407l-10 33q43 39 129.5 39t134.5 -30q0 -140 -69 -453z" />
    <glyph glyph-name="parenleft" unicode="(" horiz-adv-x="733" 
d="M641 1632l-8 -20q-217 -543 -217 -996q0 -365 138 -774q31 -93 53 -142l22 -48q-30 -64 -107 -64q-112 140 -222 394q-146 333 -146 647q0 159 38 327.5t92 294.5q111 259 200 387l38 54q81 0 119 -60z" />
    <glyph glyph-name="parenright" unicode=")" horiz-adv-x="733" 
d="M92 1632q38 60 119 60q108 -135 223 -406q146 -340 146 -657q0 -301 -145 -647q-54 -128 -118.5 -233.5t-84.5 -132.5l-21 -28q-77 0 -107 64q25 50 68 171.5t71 228.5q74 283 74 564q0 454 -217 996z" />
    <glyph glyph-name="asterisk" unicode="*" horiz-adv-x="967" 
d="M759 1307q52 0 83 -43.5t31 -82t-9 -65.5q-104 0 -266 -37q177 -149 177 -216q0 -9 -3 -17q-19 -42 -57.5 -67.5t-86.5 -25.5q-7 0 -14 1q-6 29 -94 176l-33 51q-80 -186 -156 -222q-11 -5 -16 -5q-47 0 -89.5 41t-51.5 94q61 30 188 158h-12q-104 0 -171.5 17.5
t-78.5 47.5q-8 36 -8 64q0 70 51 112l21 -4q11 -4 44 -20q88 -43 187 -74q-43 135 -43 201t23 86q45 32 95.5 32t104.5 -32q-39 -102 -43 -269q144 99 227 99z" />
    <glyph glyph-name="plus" unicode="+" horiz-adv-x="1128" 
d="M487 319v338h-344q-10 13 -10 74t12 78q140 4 342 4v336q13 10 74 10t78 -12q4 -71 8 -332h340q6 -23 6 -75t-12 -83h-332q0 -212 -4 -344q-23 -6 -75 -6t-83 12z" />
    <glyph glyph-name="comma" unicode="," horiz-adv-x="629" 
d="M270 -25q-29 0 -72.5 36.5t-43.5 103t49 121.5t117 55t111.5 -39t43.5 -125t-79.5 -197t-182.5 -143q-34 18 -37 55q37 29 64.5 71.5t29.5 61.5z" />
    <glyph glyph-name="hyphen" unicode="-" horiz-adv-x="864" 
d="M735 653h-608q-13 16 -13 86t15 90q126 18 325 18t289 -11q8 -30 8 -86.5t-16 -96.5z" />
    <glyph glyph-name="period" unicode="." horiz-adv-x="549" 
d="M172 266q56 46 118 46t103.5 -39.5t41.5 -110t-53.5 -118.5t-117.5 -48t-107.5 39.5t-43.5 108t59 122.5z" />
    <glyph glyph-name="slash" unicode="/" horiz-adv-x="762" 
d="M874 1704l-722 -2046q-16 -10 -103.5 -10t-99.5 12q35 135 350 1039.5t367 1010.5q24 6 102 6t106 -12z" />
    <glyph glyph-name="zero" unicode="0" horiz-adv-x="1491" 
d="M115 744q0 126 49.5 266.5t136 243.5t211 163t279.5 60t293 -100.5t216 -270t78 -351.5t-42 -323t-121 -246.5t-203 -166t-279 -60.5q-260 1 -443 234q-175 222 -175 551zM988 273q77 154 77 443.5t-89 445t-236.5 155.5t-227.5 -147t-80 -426t102.5 -452t239.5 -173
t214 154z" />
    <glyph glyph-name="one" unicode="1" horiz-adv-x="813" 
d="M655 1399l-12 -324v-756q0 -109 12 -267l4 -52q-85 -26 -186 -26t-133 26q29 211 29 322v690q0 93 13 189l5 32q-165 -147 -291 -203q-2 3 -13 17t-19 26q-26 36 -33 62q40 45 191 186t193 148.5t100.5 7.5t127.5 -25q12 -16 12 -53z" />
    <glyph glyph-name="two" unicode="2" horiz-adv-x="1260" 
d="M792.5 1266.5q-49.5 60.5 -167 60.5t-199.5 -90v-213q-13 -19 -48 -35t-87.5 -16t-81.5 30t-40.5 99t-11.5 124t20 78t57.5 50t93.5 56q128 67 285.5 67t268.5 -41t177.5 -131t66.5 -222q0 -158 -87 -285q-89 -129 -201 -216q-102 -81 -208 -149q-215 -137 -215 -244
q0 -19 5 -31q73 6 242.5 15t242.5 15l15 125q13 19 47.5 35.5t87.5 16.5t81 -30q52 -54 52 -235q0 -78 -19 -98q-86 -2 -786 -2h-143q-28 0 -43 55t-15 107q25 162 160 295q59 58 127.5 113t134 108t118.5 108q120 124 120 272t-49.5 208.5z" />
    <glyph glyph-name="three" unicode="3" horiz-adv-x="1178" 
d="M375 1120q-29 -57 -98.5 -57t-98.5 32q-51 58 -51 238q0 77 18 99q144 45 276.5 45t208 -11.5t140.5 -36.5t111 -63q100 -79 100 -213q0 -203 -170 -338q116 -30 192 -128t76 -259q0 -283 -245 -400q-137 -65 -344 -65q-182 0 -357 82q-18 21 -18 54.5v43.5l14 240
q55 18 102 18t73.5 -11t42 -28.5t24.5 -43.5q14 -39 14 -82.5t-2 -81.5q72 -35 171.5 -35t159.5 81t60 217.5t-60 206t-194 69.5q-20 0 -31 -1l-104 -6q-6 2 -6 27t13.5 71.5t27.5 56t70 9.5t133 -8q102 106 102 262q0 226 -257 226q-35 0 -93 -7v-203z" />
    <glyph glyph-name="four" unicode="4" horiz-adv-x="1223" 
d="M995 1368l-8 -285v-616q123 7 168 35q37 -21 37 -83.5t-55.5 -109.5t-147.5 -59q7 -149 23 -244q-86 -27 -173 -27t-132 27q10 150 14 256q-268 24 -390.5 24t-213.5 -22q-18 24 -31.5 78t-13.5 89t4 48q316 451 624 971q78 27 148.5 27t130.5 -11q16 -23 16 -98z
M279 481q49 9 132 9t312 -15q2 193 2 701q-89 -133 -235 -366t-211 -329z" />
    <glyph glyph-name="five" unicode="5" horiz-adv-x="1204" 
d="M992 143q-174 -178 -465 -178q-87 0 -190 22t-183 60q-19 21 -19 79q0 9 5 94t10 116q55 18 125.5 18t99 -35.5t28.5 -78t-2 -84.5q16 -13 61.5 -23t89.5 -9.5t87 18.5t84.5 53.5t68.5 101t27 149.5q0 127 -87 199t-227.5 72t-305.5 -23q-11 11 -14 27.5t-3 71.5l-4 378
l-5 178q0 54 26 83q368 0 757 16l129 6q11 -10 14 -27.5t3 -70.5q0 -146 -32 -208.5t-105 -62.5q-46 0 -78.5 13.5t-42.5 27.5l-10 13v131h-422q24 -149 24 -193v-211q82 11 196.5 11t195.5 -28.5t144.5 -81t101.5 -135t38 -178.5q0 -187 -120 -311z" />
    <glyph glyph-name="six" unicode="6" horiz-adv-x="1346" 
d="M1006 1110q-98 0 -132 53v142q-72 24 -147 24q-136 0 -213 -120t-104 -367q90 56 168.5 82t170 26t172.5 -28.5t147 -83.5t105 -146t39 -204t-38 -204.5t-97.5 -150t-135.5 -98.5q-141 -74 -290 -74q-267 0 -402.5 168.5t-135.5 521.5q0 241 80.5 427.5t230.5 291.5
t340.5 105t361.5 -74q15 -40 15 -105q0 -186 -135 -186zM688 786q-144 0 -280 -104q8 -361 113 -514q54 -78 128 -78q143 0 204.5 92t61.5 252.5t-61.5 256t-165.5 95.5z" />
    <glyph glyph-name="seven" unicode="7" horiz-adv-x="1016" 
d="M27 1454q375 -22 929 -22q27 -65 27 -123.5t-26.5 -110.5t-121 -212t-122.5 -221t-45.5 -109.5t-27.5 -121.5q-28 -206 -28 -313.5t13 -214.5q-72 -22 -171.5 -22t-158.5 22q0 420 93 633q66 148 220 368q105 149 180 281l-512 -28v-121q-16 -33 -59 -43.5t-72 -10.5
q-74 0 -104.5 52.5t-30.5 176.5t17 140z" />
    <glyph glyph-name="eight" unicode="8" horiz-adv-x="1253" 
d="M92 370q0 70 26 130.5t68 107.5q84 96 183 142q-199 107 -199 344q0 220 222 326q113 55 233 55q205 0 319.5 -91t114.5 -270q0 -100 -51.5 -194.5t-130.5 -157.5q209 -83 262 -218q22 -57 22 -131.5t-20 -140.5t-53.5 -112.5t-80 -82.5t-96 -57.5t-105.5 -35.5
q-186 -49 -393 -8q-178 36 -257 154q-64 97 -64 240zM868 375q0 108 -60 168t-198 110l-88 31q-66 -45 -104.5 -123t-38.5 -158t23 -141.5t61 -98.5q79 -77 174 -77q231 0 231 289zM422 1094q0 -138 124 -210q61 -34 165 -67q108 104 108 254q0 165 -69 223q-60 52 -162 52
q-166 0 -166 -252z" />
    <glyph glyph-name="nine" unicode="9" horiz-adv-x="1346" 
d="M340 330q98 0 132 -53v-142q72 -24 147 -24q136 0 213 120t104 367q-90 -56 -168.5 -82t-170 -26t-172.5 28.5t-147 83.5t-105 146t-39 204t38 204.5t97.5 150t135.5 98.5q141 74 290 74q267 0 402.5 -168.5t135.5 -521.5q0 -241 -80.5 -427.5t-230.5 -291.5t-340.5 -105
t-361.5 74q-15 40 -15 105q0 186 135 186zM658 654q144 0 280 104q-8 361 -113 514q-54 78 -128 78q-143 0 -204.5 -92t-61.5 -252.5t61.5 -256t165.5 -95.5z" />
    <glyph glyph-name="colon" unicode=":" horiz-adv-x="631" 
d="M213 920q54 45 117 45t104.5 -39t41.5 -109t-60 -127q-47 -41 -111 -41t-107.5 39.5t-43.5 108.5t59 123zM213 270q56 46 118 46t103.5 -39.5t41.5 -110t-53.5 -118.5t-117.5 -48t-107.5 39.5t-43.5 108t59 122.5z" />
    <glyph glyph-name="semicolon" unicode=";" horiz-adv-x="635" 
d="M276 -25q-29 0 -72.5 36.5t-43.5 103t49 121.5t117 55t111.5 -39t43.5 -125t-79.5 -197t-182.5 -143q-34 19 -37 55q38 29 65 71.5t29 61.5zM213 920q54 45 117 45t104.5 -39t41.5 -109t-60 -127q-47 -41 -111 -41t-107.5 39.5t-43.5 108.5t59 123z" />
    <glyph glyph-name="less" unicode="&#x3c;" horiz-adv-x="1006" 
d="M127 655q-14 46 -14 84.5t14 67.5q50 42 308.5 193t391.5 219q44 -46 86 -144q-99 -67 -313.5 -191.5t-273.5 -152.5q59 -28 273.5 -152.5t313.5 -191.5q-42 -96 -86 -143q-134 68 -392 218.5t-308 192.5z" />
    <glyph glyph-name="equal" unicode="=" horiz-adv-x="1128" 
d="M981 823h-838q-10 13 -10 74t12 78q145 17 449 17t393 -11q6 -23 6 -75t-12 -83zM981 481h-838q-10 13 -10 74t12 78q145 17 449 17t393 -11q6 -22 6 -74.5t-12 -83.5z" />
    <glyph glyph-name="greater" unicode="&#x3e;" horiz-adv-x="1006" 
d="M879 807q14 -46 14 -84.5t-14 -67.5q-50 -42 -308.5 -192.5t-392.5 -218.5q-41 43 -86 143q101 67 315.5 192t272.5 152q-58 27 -272.5 152t-315.5 192q46 102 86 144q133 -67 392 -218.5t309 -193.5z" />
    <glyph glyph-name="question" unicode="?" horiz-adv-x="1096" 
d="M623 412q-43 -19 -93 -19q-82 0 -124 23q-4 31 -4 80t19 101.5t49.5 88t67.5 66.5l74 62t68 66q68 79 68 203t-57.5 192t-156 68t-156 -60t-57.5 -145.5t50 -158.5q-16 -49 -81 -71q-24 -9 -52 -9q-184 2 -185 204q0 155 107 248q145 126 379 126q526 0 526 -394
q0 -181 -88 -283q-63 -74 -145 -125.5t-121 -82.5q-88 -72 -88 -180zM400.5 223q53.5 52 118.5 52t106.5 -39t41.5 -108t-61 -128q-46 -40 -109 -40t-106.5 39.5t-43.5 105.5t53.5 118z" />
    <glyph glyph-name="at" unicode="@" horiz-adv-x="1956" 
d="M818 371q11 -9 24.5 -9t36.5 13t55 40q75 64 147 201q15 71 35 146q43 155 43 180q0 41 -49 41q-71 0 -134 -56t-103 -140q-87 -183 -87 -343q0 -48 32 -73zM520 470q0 141 67 288q66 146 199 246q137 104 324 104q312 0 312 -231q0 -59 -19 -132l-78 -296q-3 -15 -3 -40
t19.5 -47t47.5 -22t58.5 12.5t67.5 48t66 88.5q68 124 68 351q0 143 -82 256t-218.5 174t-285.5 61t-275.5 -51.5t-225.5 -145t-158.5 -236t-59.5 -308t54.5 -301t148.5 -226.5q198 -192 487 -192q140 0 294.5 68t236.5 182q37 -8 60.5 -39.5t23.5 -81.5q0 -106 -165 -190
t-450 -84q-196 0 -366.5 64t-292.5 176t-192 273.5t-70 348.5t72 350.5t196 278.5t296 181t382 66t392.5 -82t287 -229t104.5 -330q0 -184 -90 -349q-103 -188 -279 -261q-98 -41 -208 -41t-164.5 54.5t-54.5 148.5v12q-162 -186 -326 -186q-201 0 -201 269z" />
    <glyph glyph-name="A" unicode="A" horiz-adv-x="1427" 
d="M1190.5 1295q12.5 -42 33 -213.5t42.5 -410.5t36 -370t44 -299q-72 -23 -173.5 -23t-142.5 23q-42 120 -63 475l-408 19q-93 -500 -323 -529q-10 -1 -19 -1q-70 0 -128 42.5t-58 102.5q83 56 153.5 156t117 214.5t80.5 242.5q62 241 62 448q0 71 -17 105t-71 42
q-16 20 -16 71t4 64q279 -15 725 -20q46 -14 77.5 -55.5t44 -83.5zM956 629q-5 106 -11 267t-8 199.5t-6 73t-8 49.5t-13 27q-12 17 -60.5 23t-224.5 6q0 -131 -14.5 -324t-28.5 -303h38q172 0 336 -18z" />
    <glyph glyph-name="B" unicode="B" horiz-adv-x="1454" 
d="M679 1476l71 -1q292 -7 406 -109q99 -88 99 -264q0 -89 -54.5 -181t-137.5 -153q125 -20 212 -117.5t87 -244.5q0 -449 -664 -449q-178 0 -415 33q-43 6 -56 112q-4 31 -4 67l12 660q0 390 -39 449q-19 27 -67 31q-14 34 -14 71.5t2 46.5v7q75 16 238.5 29t323.5 13z
M528 332l-2 -70q0 -117 41 -143q67 -7 121.5 -7t103 7t97 26t82.5 49q76 69 76 199q0 255 -362 255q-69 0 -150 -9q0 -118 -7 -307zM887 801q92 136 92 259t-76 192t-237 69q-78 0 -162 -16q23 -107 26 -206t3.5 -182t1.5 -126q140 12 218 12t134 -2z" />
    <glyph glyph-name="C" unicode="C" horiz-adv-x="1399" 
d="M1307 172q-199 -207 -508 -207q-291 0 -478 177q-93 89 -145.5 233.5t-52.5 351t97 381.5t272.5 271t391 96t390.5 -82q18 -22 18 -55.5v-43.5l-14 -221q-55 -37 -106.5 -37t-81.5 15.5t-44 43.5q-24 48 -24 96.5t2 86.5q-56 41 -148.5 41t-149 -18.5t-106.5 -60.5
t-85 -105q-76 -137 -76 -373q0 -298 130.5 -457.5t338.5 -159.5q151 0 299 127q58 -28 80 -100z" />
    <glyph glyph-name="D" unicode="D" horiz-adv-x="1626" 
d="M219 629l6 324q0 98 -3.5 175.5t-18 105t-28.5 36t-28 13.5t-16 5q-16 4 -16 53.5t4 61.5q348 77 526 77q425 0 660 -205q198 -172 198 -484q0 -250 -119 -436.5t-327.5 -283t-478.5 -96.5q-148 0 -277 25q-66 27 -75 138q-7 86 -7 259v232zM526 1012l-10 -608v-68
q0 -191 35 -219q36 -6 77 -6t110 3.5t147.5 42.5t144.5 112t105 194.5t39 261t-31.5 241.5t-82 169t-116.5 113q-126 87 -259 87t-183 -14q24 -105 24 -249v-60z" />
    <glyph glyph-name="E" unicode="E" horiz-adv-x="1286" 
d="M1183 283q31 -59 31 -174t-16 -129q-354 15 -648.5 17t-377.5 3q29 239 29 528v648q0 87 -27 112q-12 11 -35 19q-15 20 -15 64.5t3 62.5q89 1 250 2t249 2q247 3 572 16q16 -14 16 -129t-31 -174t-116 -59t-119 53v121q-292 14 -465 14q25 -110 25 -270v-23v-186l430 22
q16 -19 16 -76.5t-10 -117.5q-55 -8 -156.5 -8t-279.5 20v-195v-23q0 -161 -25 -269q173 0 465 14v121q17 33 78 47q24 6 53 6q73 0 104 -59z" />
    <glyph glyph-name="F" unicode="F" horiz-adv-x="1194" 
d="M510 1280q25 -117 25 -272v-21l-3 -186l392 22q16 -19 16 -78t-10 -116q-55 -8 -143 -8t-255 20l-2 -285q0 -197 27 -356q-85 -26 -206.5 -26t-153.5 26q30 267 30 629v547q0 68 -18.5 91.5t-69.5 39.5q-15 20 -15 64.5t3 62.5q85 1 241 2t234 2q217 3 545 16
q16 -14 16 -129t-31 -174t-116 -59t-119 53v121q-292 14 -387 14z" />
    <glyph glyph-name="G" unicode="G" horiz-adv-x="1513" 
d="M1119 290l-1 66q0 131 -56 148q-9 2 -24 5.5t-22 6.5q-18 24 -18 68t3 59q67 7 167 7t216 -7q31 -33 31 -100q4 -59 4 -150t-8 -213q-39 -92 -181.5 -153.5t-332.5 -61.5q-225 0 -415 101q-104 55 -182.5 135.5t-127.5 206.5t-49 277t44.5 278t124.5 221t190 160
q223 133 529 133q160 0 328 -39q19 -22 19 -55.5v-43.5l-15 -237q-63 -37 -114 -37t-81.5 15t-44.5 43q-24 48 -24 96t2 86q-54 20 -148.5 20t-156.5 -17t-122.5 -59t-105.5 -105q-99 -141 -99 -388q0 -350 229 -523q127 -96 278 -96q72 0 103 10t51 37q9 13 9 106z" />
    <glyph glyph-name="H" unicode="H" horiz-adv-x="1563" 
d="M1378 1452q22 -23 22 -52.5t-4 -85.5q-12 -168 -12 -292v-621q0 -230 25 -401q-78 -26 -191.5 -26t-156.5 26q16 244 16 322v327l-553 25q2 -182 29 -674q-78 -26 -191.5 -26t-156.5 26q24 211 24 322v802q0 134 -33 158q-15 11 -34.5 16.5t-22.5 6.5q-15 20 -15 65.5
t3 63.5q50 10 161.5 10t248.5 -10q-13 -355 -13 -607q63 8 201 8t352 -26v324q0 125 -11 259l-3 44z" />
    <glyph glyph-name="I" unicode="I" horiz-adv-x="743" 
d="M264 322v802q0 126 -73 162q-9 5 -28.5 11t-23.5 8q-15 20 -15 65.5t3 63.5q50 10 179 10t265 -10v-1115q0 -96 13 -267l4 -52q-85 -26 -202.5 -26t-149.5 26q28 211 28 322z" />
    <glyph glyph-name="J" unicode="J" horiz-adv-x="850" 
d="M399 109q0 827 -3 940.5t-10 143t-15.5 46.5t-25 30t-25.5 17.5t-28.5 10.5t-23.5 8q-15 20 -15 65.5t3 63.5q50 10 176 10t262 -10l-10 -488q7 -434 7 -669t-5 -285q0 -264 -157 -368q-85 -56 -199 -56q-134 0 -248 55q-55 27 -89 73.5t-34 106.5t49 111t125 51
q75 0 109 -39q14 -15 13.5 -24t-0.5 -56.5t28.5 -94t74.5 -46.5q93 0 93 115q0 44 -26 148t-26 141z" />
    <glyph glyph-name="K" unicode="K" horiz-adv-x="1495" 
d="M1298.5 174q28.5 -22 57.5 -22t67 26l41 -67q-68 -101 -172 -141q-44 -17 -94.5 -17t-107.5 42.5t-107 115.5t-95 156t-84 179q-74 179 -114 308q-66 -89 -119 -142v-293l17 -319q-85 -26 -194.5 -26t-141.5 26l12 322v802q0 126 -73 162q-9 5 -28.5 11t-23.5 8
q-15 20 -15 65.5t3 63.5q50 10 179 10t265 -10v-623q12 18 43 68.5t50.5 80.5t55 83.5t61.5 88t64.5 82.5t70.5 79t73.5 65.5t78.5 55.5q84 46 174 46t155 -53.5t65 -147t-64 -150.5t-150 -57q-18 0 -36 3q0 104 -44 144q-20 18 -47 18t-60 -20.5t-62 -47.5t-71 -79
q-67 -80 -144 -185q38 -56 95.5 -143t97.5 -147t91 -134.5t88.5 -124.5t75.5 -95t66.5 -67z" />
    <glyph glyph-name="L" unicode="L" horiz-adv-x="1348" 
d="M266 287l-2 837q0 126 -73 162q-9 5 -28.5 11t-23.5 8q-15 20 -15 65.5t3 63.5q122 25 245.5 25t162 -2.5t41.5 -4.5q14 -6 12 -41l-15 -389v-713q0 -67 5 -100t22 -51q67 5 202 14t212 16l14 125q13 19 48 35.5t87.5 16.5t81.5 -30q51 -53 51 -235q0 -77 -18 -98
q-86 -2 -766 -2h-195q-20 7 -35.5 49.5t-15.5 118.5v119z" />
    <glyph glyph-name="M" unicode="M" horiz-adv-x="2120" 
d="M1831 1202q74 -493 110 -653.5t71 -305.5t56 -241q-71 -23 -170.5 -23t-140.5 23q-78 148 -186 930q-18 130 -21 149q-185 -438 -250 -783q-24 -126 -24 -177v-60q-62 -44 -163 -44q-111 0 -136 44q-15 43 -72 221q-153 480 -272 810l-4 -58q-15 -321 -39 -453
t-44 -216.5t-47.5 -150t-62.5 -120.5q-80 -128 -199 -128q-99 0 -158 72q-28 34 -28 73q85 57 156 156t116 208t78 233q69 258 69 447q0 62 -9 80.5t-13 28t-16 17.5t-15.5 10t-18.5 7.5t-17 6.5q-16 20 -16 66.5t4 62.5q50 10 134.5 10t221.5 -10q48 -10 307 -675
q98 -252 123 -300q54 184 346 973q100 7 131.5 7t70 -12.5t76.5 -73.5t52 -151z" />
    <glyph glyph-name="N" unicode="N" horiz-adv-x="1501" 
d="M1378 4q-62 -14 -89.5 -14t-135.5 12q-207 144 -741 1145q46 -733 76 -1038l10 -101q-89 -25 -174.5 -25t-116.5 25q26 158 26 817q0 342 -6.5 383t-18.5 58q-18 24 -42 31t-27 8q-15 20 -15 65.5t3 63.5q50 10 132 10t218 -10q56 -25 145 -145.5t168.5 -256.5
t199 -342.5t192.5 -322.5l-52 1056q76 23 144.5 23t103.5 -29q-8 -100 -8 -492t8 -921z" />
    <glyph glyph-name="O" unicode="O" 
d="M1486 268.5q-128 -196.5 -368 -268.5q-115 -34 -249.5 -34t-269.5 48.5t-241.5 137t-170.5 226.5t-64 304q0 310 143 503t412 265q93 25 198.5 25t212.5 -29t201.5 -89t167.5 -143q156 -178 156 -463.5t-128 -482zM724 155q82 -43 173 -43t161.5 33t115.5 87.5t75 129.5
q54 135 54 320q0 281 -133 463t-326 182q-76 0 -147.5 -28t-123 -89.5t-77.5 -141.5q-50 -148 -50 -307t36 -281t98 -202t144 -123z" />
    <glyph glyph-name="P" unicode="P" horiz-adv-x="1393" 
d="M553 539v-220q0 -81 12 -259l4 -60q-85 -26 -202.5 -26t-149.5 26q29 211 29 322v802q0 89 -16 114t-21 32.5t-17.5 15l-17.5 10.5q-11 5 -35 13q-20 54 -14 123q281 43 597 43h58q213 -4 362 -101q73 -48 115.5 -127t42.5 -175.5t-22 -172.5t-75.5 -143.5t-136.5 -113.5
q-180 -99 -513 -103zM1004 1014q0 307 -314 307q-87 0 -162 -10q25 -110 25 -299v-318q327 11 407 130q44 66 44 190z" />
    <glyph glyph-name="Q" unicode="Q" 
d="M1311 -174q172 0 260 123q25 -14 41 -26q41 -32 41 -91q0 -94 -75 -154.5t-173.5 -60.5t-178 18t-130.5 39q-136 58 -351 58q-24 47 -24 98t10 70q61 11 107.5 11t84 -6.5t65.5 -16t63.5 -20.5t69.5 -20q79 -22 190 -22zM1486 268.5q-128 -196.5 -368 -268.5
q-115 -34 -249.5 -34t-269.5 48.5t-241.5 137t-170.5 226.5t-64 304q0 310 143 503t412 265q93 25 198.5 25t212.5 -29t201.5 -89t167.5 -143q156 -178 156 -463.5t-128 -482zM724 155q82 -43 173 -43t161.5 33t115.5 87.5t75 129.5q54 135 54 320q0 281 -133 463t-326 182
q-76 0 -147.5 -28t-123 -89.5t-77.5 -141.5q-50 -148 -50 -307t36 -281t98 -202t144 -123z" />
    <glyph glyph-name="R" unicode="R" horiz-adv-x="1493" 
d="M1312 143.5q19 -10.5 30 -11.5t31.5 -1t56.5 19l32 -72q-67 -83 -165 -117q-41 -14 -66 -14q-95 0 -160 48t-112 111t-89 144q-78 148 -120 301q-90 -12 -197 -12v-220q0 -81 12 -259l4 -60q-85 -26 -202.5 -26t-149.5 26q29 211 29 322v802q0 89 -16 114t-21 32.5
t-17.5 15l-17.5 10.5q-11 5 -35 13q-15 39 -15 77.5t1 47.5q268 41 592 41h57q213 -4 364 -105q74 -50 118 -130t44 -181q0 -168 -80.5 -286.5t-265.5 -178.5q78 -105 131 -180t86 -119t54.5 -69t44.5 -48.5t42 -34zM1004 1057q0 264 -314 264q-59 0 -137 -8v-619
q354 15 423 188q28 73 28 175z" />
    <glyph glyph-name="S" unicode="S" horiz-adv-x="1239" 
d="M115 278q0 117 134 117q68 0 134 -35q0 -127 53 -194.5t181.5 -67.5t188.5 49t60 156q0 114 -88 195q-72 67 -167 116t-153 80.5t-110.5 69.5t-93.5 82q-88 95 -88 227.5t69 223.5q135 178 439 178q234 0 357 -97q112 -89 112 -198q0 -51 -34.5 -84t-106.5 -33t-148 37
v13q0 111 -49.5 178t-149.5 67t-158.5 -56t-58.5 -165q0 -94 92 -165q64 -50 168 -102t164.5 -84.5t115.5 -73t97 -88.5q92 -104 92 -239.5t-73 -229t-195 -142t-245.5 -48.5t-208.5 19.5t-144 52t-102 73.5q-84 80 -84 168z" />
    <glyph glyph-name="T" unicode="T" horiz-adv-x="1415" 
d="M1353.5 1113q-28.5 -30 -99.5 -30t-117 52v141q-117 -9 -267 -12v-863q0 -230 25 -401q-78 -26 -196.5 -26t-161.5 26l26 322v942l-284 10v-139q-13 -19 -48 -35.5t-88 -16.5t-81.5 30t-40 98t-11.5 141.5t19 93.5q253 -12 642 -12t715 12q19 -20 19 -92t-11.5 -141.5
t-40 -99.5z" />
    <glyph glyph-name="U" unicode="U" horiz-adv-x="1481" 
d="M1366 1354l1 -309q0 -295 -15.5 -432.5t-36 -228t-51.5 -155.5t-75.5 -117t-104.5 -84q-121 -63 -278 -63t-264.5 45.5t-189 131.5t-128 221t-46.5 304v5l2 452q0 130 -36 158q-18 15 -52 23q-19 24 -19 69t3 60q50 10 165.5 10t252.5 -10v-174l-2 -510q-1 -21 -1 -123
t24.5 -214t72.5 -175q91 -117 266 -117q109 0 163 67q70 86 70 459v72q-4 493 -13 661l-3 56l270 14q25 -27 25 -96z" />
    <glyph glyph-name="V" unicode="V" horiz-adv-x="1397" 
d="M1114 1331q2 16 2 53t-18 64q0 10 29 18.5t59 8.5q89 0 134.5 -56.5t45.5 -139t-66.5 -254t-201 -482t-228.5 -572.5q-37 -4 -80 -4q-123 0 -155 43q-18 25 -158 426q-264 756 -358 815q-22 12 -42 13.5t-33.5 2.5t-16.5 1q-20 50 -15 84q152 85 338 85q29 0 43 -1
q33 -34 159.5 -391.5t264.5 -798.5q287 985 297 1085z" />
    <glyph glyph-name="W" unicode="W" horiz-adv-x="2058" 
d="M872 1352q95 67 190 67q110 0 163 -122q43 -99 73.5 -263t50.5 -272q50 -270 134 -504q260 973 270 1073q2 16 2 53t-18 64q0 10 29 18.5t59 8.5q91 0 147 -58t56 -122t-27 -167t-91 -270t-106 -270t-138.5 -329.5t-121.5 -285.5q-35 -7 -84.5 -7t-96 13.5t-63.5 36.5
q-23 33 -118 387.5t-121 430.5q-26 -52 -67 -228t-87 -365t-84 -268q-35 -7 -83 -7t-92 13.5t-59 35t-75 210t-127 402t-145.5 405t-126.5 221.5q-18 11 -34.5 12t-32.5 2t-21 1q-16 39 -16 59.5t1 26.5q145 81 341 81q34 0 50 -1q20 -21 69 -184.5t136.5 -475.5t151.5 -522
q139 645 211 850q-42 117 -99 250z" />
    <glyph glyph-name="X" unicode="X" horiz-adv-x="1352" 
d="M87 1274l-38 2q-3 3 -9 25t-6 36t1 21q143 82 302 82q43 0 87 -6q106 -228 305 -551q65 116 92 166.5t79 167t85 225.5q56 14 96 14q146 0 146 -166q0 -113 -267 -398q-36 -39 -83 -88t-60 -63q134 -210 504 -743q-55 -31 -146 -31q-173 0 -204 33q-50 54 -373 565
q-152 -254 -199 -372.5t-73 -206.5q-56 -14 -96 -14q-146 0 -146 165q0 84 131 243q132 159 295 322q-227 365 -252.5 412.5t-36.5 64.5t-20.5 30t-21 23t-19 16.5t-19.5 11.5q-34 14 -54 14z" />
    <glyph glyph-name="Y" unicode="Y" horiz-adv-x="1272" 
d="M858 401q0 -129 43 -401q-76 -26 -195.5 -26t-162.5 26l20 322l6 286q-204 368 -264 454q-109 157 -160 189q-19 13 -98 19q-17 48 -14 82q82 46 146 63.5t118 17.5t70 -1q4 -4 30 -28.5t46 -46t59 -75.5t75 -118q89 -159 187 -414q216 487 225 581q2 16 2 53t-18 64
q0 10 29 18.5t59 8.5q89 0 134.5 -56.5t45.5 -118.5t-23.5 -120t-66 -119.5t-89.5 -126.5q-130 -178 -208 -348z" />
    <glyph glyph-name="Z" unicode="Z" horiz-adv-x="1333" 
d="M1008 -18l-50 -1q-64 0 -332 9.5t-450 9.5q-20 33 -20 96q0 104 16 140q499 657 754 1071l-484 -25q-93 0 -93 -140q0 -32 5 -65q0 -3 -13 -15q-43 -40 -110 -40q-58 0 -94 27q-65 49 -65 149q0 262 313 262q55 0 302.5 -12t522.5 -12q8 0 15.5 -28t7.5 -68
q0 -75 -21 -117q-472 -601 -755 -1084q295 5 455 55t259 171q66 -13 111 -58q-8 -134 -77.5 -226.5t-196.5 -98.5z" />
    <glyph glyph-name="bracketleft" unicode="[" horiz-adv-x="717" 
d="M182 -365q-29 475 -29 1023.5t29 1000.5q112 8 222.5 8t213.5 -8q7 -40 7 -67.5t-7 -65.5h-192q-14 -418 -14 -912.5t14 -844.5h192q7 -42 7 -69.5t-7 -64.5q-123 -10 -229 -10t-207 10z" />
    <glyph glyph-name="backslash" unicode="\" horiz-adv-x="782" 
d="M662 -342l-723 2046q28 12 106 12t102 -6q52 -106 367 -1010.5t350 -1039.5q-12 -12 -100 -12t-102 10z" />
    <glyph glyph-name="bracketright" unicode="]" horiz-adv-x="717" 
d="M535 -365q-101 -10 -206.5 -10t-230.5 10q-6 31 -6 64.5t6 69.5h193q14 350 14 844.5t-14 912.5h-193q-6 33 -6 65.5t6 67.5q103 8 214 8t223 -8q28 -458 28 -1011.5t-28 -1012.5z" />
    <glyph glyph-name="asciicircum" unicode="^" horiz-adv-x="844" 
d="M348 1473q28 9 72.5 9t77.5 -12q40 -50 132.5 -233t141.5 -307q-48 -13 -93 -13t-91 13q-89 177 -166 362q-89 -223 -168 -362q-51 -13 -96.5 -13t-85.5 13q44 113 138 296t138 247z" />
    <glyph glyph-name="underscore" unicode="_" horiz-adv-x="1225" 
d="M1159 -463h-1098q-10 13 -10 67.5t12 71.5q142 18 578 18t524 -11q7 -26 7 -69.5t-13 -76.5z" />
    <glyph glyph-name="grave" unicode="`" horiz-adv-x="856" 
d="M621 1219q-36 -34 -99 -50q-219 279 -299 340q17 50 62 78.5t106 30.5q89 -4 163 -192q33 -83 67 -207z" />
    <glyph glyph-name="a" unicode="a" horiz-adv-x="1305" 
d="M1081 565l-6 -336v-10q0 -55 52 -55q40 0 85 26q14 -12 26.5 -33.5t14.5 -33.5q-124 -158 -257.5 -158t-186.5 131q-92 -64 -187.5 -97.5t-164 -33.5t-127 15t-108.5 48q-108 70 -108 231q0 86 47.5 150.5t129.5 101.5q157 71 375 77l116 4q7 81 7 128q0 106 -40.5 160
t-150.5 54q-66 0 -102.5 -46t-36.5 -136q0 -12 -34 -29q-57 -27 -113.5 -27t-90 32t-33.5 90t42 109t112 79q139 55 317 55q186 0 272 -59q78 -52 111 -149q39 -113 39 -288zM782 201q-13 73 -13 126.5t3 149.5l-139 -6q-107 0 -165 -52t-58 -130t34 -112t137.5 -34
t200.5 58z" />
    <glyph glyph-name="b" unicode="b" horiz-adv-x="1331" 
d="M475 809v-257q0 -292 4 -458q49 -8 119 -8q131 0 234 108q113 120 113 356q0 359 -214 359q-57 0 -115 -24t-141 -76zM481 1376l1 -34q0 -28 -1 -82t-2 -141t-2 -165q145 111 314 111q231 0 345.5 -127t114.5 -362q0 -217 -99 -352q-193 -265 -554 -265q-252 0 -424 51
q16 265 16 679t-6 603q-3 50 -37 79t-88 34q-7 49 -7 55.5t1 14.5q189 73 378 73h18q23 -29 32 -172z" />
    <glyph glyph-name="c" unicode="c" horiz-adv-x="1165" 
d="M1114 817q0 -152 -158 -152q-54 0 -78 12.5t-24 14.5q3 19 3 39q0 94 -60.5 149.5t-162.5 55.5t-164 -87.5t-62 -271.5t106.5 -325t237.5 -141q113 0 226 91q26 21 52 50q22 -14 45.5 -39.5t28.5 -48.5q-47 -63 -142 -121q-130 -78 -287 -78t-285.5 66t-202.5 189
t-74 280q0 302 223 466q143 105 348 105q173 0 301 -75q58 -34 93 -81t36 -98z" />
    <glyph glyph-name="d" unicode="d" horiz-adv-x="1351" 
d="M1160 1347l-9 -616q0 -213 6 -518q0 -67 55 -72q12 -1 37 -1t39 -1q11 -19 11 -40t-3 -36q-174 -98 -293 -98q-83 13 -133 129q-71 -68 -140 -98.5t-150 -30.5t-147.5 16.5t-131.5 56.5t-113 100q-108 135 -108 364q0 133 50 240t134 174q172 137 413 137q69 0 191 -19
l-6 264q-3 50 -37.5 79t-87.5 34q-7 49 -7 55.5t1 14.5q189 73 377 73h18q14 -19 24 -79t10 -128zM727 907q-148 0 -242.5 -94t-94.5 -285q0 -131 30.5 -213.5t67.5 -120.5q73 -75 153 -75t122 24t105 95q7 132 7 321.5t-3 335.5q-74 12 -145 12z" />
    <glyph glyph-name="e" unicode="e" horiz-adv-x="1196" 
d="M554 193q98 -91 229 -91t264 113q50 -33 61 -78q-92 -107 -272 -153q-73 -19 -168.5 -19t-197.5 34.5t-182.5 100.5t-127.5 173.5t-47 238.5t48 237.5t127 174.5q165 143 378 143q187 0 324 -101q66 -50 105.5 -129.5t39.5 -179.5q0 -171 -113 -180l-596 -45
q30 -148 128 -239zM800 873q-66 67 -173 67t-162 -100.5t-55 -278.5q249 27 450 57q6 36 6 69q0 119 -66 186z" />
    <glyph glyph-name="f" unicode="f" horiz-adv-x="819" 
d="M504 936l226 -9q29 0 42 1q4 0 4 -61.5t-4 -61.5q-117 -14 -268 -14q0 -640 20 -789q-51 -21 -143 -21t-158 19q-10 476 -10 803q-88 10 -156 10q-5 8 -5 59t5 56q68 9 156 12q4 193 6 241t26 122.5t60.5 123t84.5 81.5q88 59 192.5 59t173.5 -21t112 -72.5t43 -128
t-37 -126.5t-118 -50q-37 0 -67.5 14t-43 26.5t-12.5 15.5q7 32 7 80t-24 86.5t-68 38.5t-69.5 -31.5t-25.5 -82.5t25.5 -155t25.5 -141v-84z" />
    <glyph glyph-name="g" unicode="g" horiz-adv-x="1485" 
d="M1216 1046.5q82 61.5 160.5 61.5t119 -35t40.5 -94q0 -119 -145 -176q-39 58 -124 58q-60 0 -122 -79q31 -74 31 -133q0 -372 -351 -463q5 -35 93 -94q38 -25 84 -54t90.5 -64t81.5 -73q83 -85 83 -184q0 -218 -161 -331t-457 -113q-376 0 -516 163q-61 70 -61 169
q0 205 219 272q92 28 167 40q146 25 216 50q-118 97 -132 195q-190 14 -317 126t-127 285q0 246 167 372t458 126q97 0 195.5 -51.5t168.5 -132.5q57 98 139 159.5zM608 946q-225 0 -225 -334q0 -158 81.5 -252t207.5 -94q62 0 113 49q102 98 102 263t-79.5 266.5
t-199.5 101.5zM1001 -356q0 61 -64 119q-60 55 -161 122q-55 -50 -200 -75q-52 -9 -102 -23q-109 -31 -109 -130.5t84 -169t242 -69.5t234 61.5t76 164.5z" />
    <glyph glyph-name="h" unicode="h" horiz-adv-x="1425" 
d="M925 217l10 381v28.5v37.5t-0.5 35t-2.5 32.5t-4.5 29.5t-7 25.5t-11 21t-15.5 17t-21 13.5q-23 10 -76 10q-122 0 -279 -152q0 -186 -6 -696q-112 -19 -184 -19t-123 19q19 142 19 576t-9 700q-6 100 -125 113l-3 18q-4 22 -4 31q0 12 1 20q132 51 222 62.5t129 11.5h48
q24 -30 30 -140t6 -287.5t-1 -258.5q90 109 208 165t236 56t184.5 -78t76.5 -213q4 -60 4 -123t-11.5 -206t-11.5 -256q0 -26 37 -40t72.5 -14t48.5 4q12 -27 12 -49.5t-2 -30.5q-187 -97 -279 -97t-130 62.5t-38 190.5z" />
    <glyph glyph-name="i" unicode="i" horiz-adv-x="653" 
d="M256 1532q59 50 128 50t114 -42.5t45 -119.5t-58 -129.5t-132.5 -52.5t-117 46t-42.5 118t63 130zM229 801q0 76 -53 90q-34 11 -96 16q-7 30 -7 45.5t1 24.5q144 81 361 81q35 0 52 -1q28 -44 39 -172q8 -58 8 -175t-8 -712q-111 -19 -184.5 -19t-124.5 19
q18 241 18 431.5t-6 371.5z" />
    <glyph glyph-name="j" unicode="j" horiz-adv-x="758" 
d="M-39 -68q38 27 79 27t74 -14t47.5 -26.5t14.5 -14.5q-2 -30 -2 -72.5t23 -84.5t67 -42q92 0 92 115q0 44 -25.5 148t-25.5 141v287q0 270 -4 397q-3 50 -42.5 82.5t-92.5 37.5q-7 49 -7 55.5t1 14.5q192 74 382 74h17q27 -35 33 -172v-893q0 -264 -157 -368
q-85 -56 -216.5 -56t-231.5 59t-100 174q0 78 74 131zM340 1532q59 50 128 50t114 -42.5t45 -119.5t-58 -129.5t-132.5 -52.5t-117 46t-42.5 118t63 130z" />
    <glyph glyph-name="k" unicode="k" horiz-adv-x="1354" 
d="M1184 158q40 0 78 26l41 -67q-67 -101 -173 -141q-44 -17 -91 -17t-91.5 24.5t-78.5 62.5t-66.5 95t-54.5 109.5t-44 119.5q-27 79 -61 214q-69 -107 -129 -174q0 -116 -4 -410q-98 -19 -174.5 -19t-128.5 21q25 151 25 564t-15 710q-8 96 -127 110l-3 18q-4 23 -4 33.5
t1 18.5q187 74 382 74h19q22 -28 27 -113t5 -345t-1 -478q111 207 196 298q104 111 175.5 139t128.5 28q100 0 162.5 -55.5t62.5 -149t-61.5 -149t-146.5 -55.5q-18 0 -36 3q0 114 -44 161q-20 22 -59.5 22t-78.5 -31.5t-90 -99.5q138 -247 264 -397t195 -150z" />
    <glyph glyph-name="l" unicode="l" horiz-adv-x="594" 
d="M186 1276q-17 97 -127 110q-7 49 -7 55.5t1 14.5q189 74 383 74h19q21 -27 28 -125.5t7 -458t-11 -946.5q-66 -19 -158 -19t-143 21q18 134 18 511t-10 763z" />
    <glyph glyph-name="m" unicode="m" horiz-adv-x="2097" 
d="M942 516l1 61q0 165 -29.5 221t-110.5 56q-49 0 -107 -35.5t-151 -113.5q1 -61 1 -286.5t-1 -418.5q-105 -21 -182 -21t-127 19q13 227 13 412.5t-7 388.5q0 76 -56 88q-34 11 -96 16q-1 6 -2.5 14.5t-2.5 13.5q-2 14 -2 24t1 18q149 86 359 86q19 0 55 -2
q23 -36 31 -105.5t12 -97.5q173 158 299 196q58 17 113 17t98.5 -10.5t81.5 -33.5q80 -49 88 -165q184 209 407 209q125 0 196 -64q78 -72 78 -281q0 -86 -14 -244.5t-14 -286.5q0 -26 37 -40t72.5 -14t48.5 4q13 -31 13 -51t-3 -29q-163 -102 -269 -102q-173 0 -173 276
l13 355q0 152 -26 207t-94 55q-129 0 -270 -121q6 -627 18 -715q-107 -30 -173.5 -30t-137.5 16q-1 20 -1 63z" />
    <glyph glyph-name="n" unicode="n" horiz-adv-x="1436" 
d="M935 217l10 381q0 130 -8.5 164t-21.5 51q-28 35 -82 35t-92 -12q-78 -26 -200 -146q0 -130 -6 -692q-111 -19 -185 -19t-125 19q18 243 18 448.5t-5 354.5q0 76 -54 90q-34 11 -96 16q-6 26 -6 41.5t4 28.5q144 81 358 81q35 0 52 -1q39 -67 43 -230q187 240 438 240
q116 0 181.5 -78.5t74.5 -212.5q4 -61 4 -122t-6 -132q-17 -216 -17 -331q0 -26 37 -40t72.5 -14t48.5 4q12 -27 12 -49.5t-2 -30.5q-187 -97 -279 -97t-130 62.5t-38 190.5z" />
    <glyph glyph-name="o" unicode="o" horiz-adv-x="1386" 
d="M1274 544q0 -131 -47 -246t-133 -188q-173 -147 -457 -147q-142 0 -262 67t-191 187.5t-71 288t86 301.5q169 264 567 264q200 0 351 -137q157 -143 157 -390zM507 216q99 -128 232 -128q246 0 246 401q0 199 -91 323t-232 124q-71 0 -123 -36t-79 -97q-52 -117 -52 -288
t99 -299z" />
    <glyph glyph-name="p" unicode="p" horiz-adv-x="1375" 
d="M211 -649q20 199 20 689.5t-28 760.5q-6 103 -113 112q-1 6 -2.5 14.5t-2.5 13.5q-2 14 -2 24t1 18q133 51 217 62.5t122.5 11.5h47.5q23 -35 31 -129q69 63 161.5 100t173 37t139.5 -12.5t116.5 -46t99.5 -86.5q103 -130 103 -371q0 -115 -36 -214t-94.5 -167
t-133.5 -116q-145 -93 -289 -93t-232 29q0 -189 -4 -643q-91 -16 -163.5 -16t-131.5 22zM506 821q4 -250 4 -704q62 -23 141.5 -23t133.5 25.5t101 75.5q103 111 103 335q0 231 -95 312q-71 61 -175.5 61t-212.5 -82z" />
    <glyph glyph-name="q" unicode="q" horiz-adv-x="1296" 
d="M312 32q-232 136 -232 460q0 312 280 478q161 95 365 95q236 0 435 -67l23 -7l-4 -2h2q-30 -226 -30 -701.5t26 -936.5q-59 -22 -131.5 -22t-163.5 16q-6 402 -6 714q-127 -100 -283.5 -100t-280.5 73zM876 182q0 543 4 621l4 119q-68 14 -141.5 14t-136.5 -26.5
t-112 -77.5q-107 -110 -107 -317q0 -128 33 -207t74 -117q82 -76 186 -76t196 67z" />
    <glyph glyph-name="r" unicode="r" horiz-adv-x="1067" 
d="M805 671q0 171 -78 171q-57 0 -109 -32.5t-112 -90.5q0 -100 -6 -721q-111 -19 -181.5 -19t-121.5 19q12 166 12 569v234q0 76 -53 90q-36 11 -97 16q-7 30 -7 45.5t1 24.5q144 81 356 81q35 0 52 -1q29 -50 34.5 -104t8.5 -103q134 163 226 198q44 17 93 17
q100 0 160.5 -55.5t60.5 -162.5q0 -82 -60 -137q-59 -54 -143 -54q-18 0 -36 3v12z" />
    <glyph glyph-name="s" unicode="s" horiz-adv-x="1075" 
d="M180 318q23 4 66.5 4t115.5 -35q-1 -8 -1 -30t10.5 -54t32.5 -59q48 -60 158 -60t144 74q29 68 -10 141q-29 54 -155 103q-21 8 -58 22q-332 119 -336 344q0 102 57 172q108 131 365 131q169 0 285.5 -70t116.5 -172q0 -114 -111 -114q-79 0 -111 17.5t-32 19.5v11
q0 187 -182 187q-63 0 -99.5 -32.5t-36.5 -95t44.5 -103.5t172 -92t163.5 -69q225 -109 225 -282q0 -150 -126.5 -230.5t-336.5 -80.5q-139 0 -210 24t-107.5 44t-60 42t-39.5 46q-43 63 -25 128q15 55 81 69z" />
    <glyph glyph-name="t" unicode="t" horiz-adv-x="786" 
d="M694 201q36 -33 41 -68q-132 -168 -305 -168q-113 0 -160 90q-40 79 -49 271q-8 300 -8 559q-102 4 -125 10q-5 8 -5 59t5 56l127 12q0 21 6 201q50 51 146.5 78.5t171.5 27.5q-14 -127 -23 -307q33 -1 199 -12q5 -17 5 -65t-5 -58q-92 -12 -205 -15q-4 -119 -4 -300.5
t8 -342.5q3 -62 62.5 -62t117.5 34z" />
    <glyph glyph-name="u" unicode="u" horiz-adv-x="1372" 
d="M138 908q-66 0 -66 57q0 16 2 24q35 25 171 48.5t220 23.5q31 -101 31 -227t-12.5 -287.5t-12.5 -227.5t20 -106.5t82.5 -40.5t129 30.5t169.5 112.5q0 308 2 732q115 18 185.5 18t122.5 -18q-15 -219 -15 -420.5t11 -419.5q2 -33 13 -51t57.5 -21t64.5 -10q4 -21 4 -68
q-87 -49 -175 -70.5t-149 -21.5t-83.5 45t-35.5 180q-244 -225 -466 -225t-222 352l17 529q0 34 -20.5 48t-44.5 14z" />
    <glyph glyph-name="v" unicode="v" horiz-adv-x="1178" 
d="M979 1087q188 0 188 -180q0 -139 -146 -381q-188 -311 -288 -549q-36 -14 -80 -14t-86 17t-57.5 38t-68 152t-110 274t-128.5 276t-119 163q-16 10 -96 16q-1 8 -3 17.5t-3 14.5q-3 21 0 38q145 81 325 81q33 0 49 -1q41 -43 123 -242.5t203 -587.5q215 625 225 725
q3 25 3 56.5t-19 60.5q0 9 29 17.5t59 8.5z" />
    <glyph glyph-name="w" unicode="w" horiz-adv-x="1808" 
d="M1542 920q2 16 2 52.5t-18 63.5q0 10 29 18.5t59 8.5q89 0 131.5 -56t42.5 -121t-25 -135t-70.5 -151t-96.5 -166q-138 -228 -236 -461q-36 -14 -80 -14t-83.5 17t-57.5 40q-46 66 -176 445q-55 -97 -133 -264.5t-105 -223.5q-36 -14 -81 -14t-87 17t-57.5 38t-68 152
t-110 274t-128.5 276t-119 163q-16 10 -97 16q-7 49 -7 55.5t1 14.5q145 81 341 81q19 0 55 -2q91 -93 319 -835q129 266 201 471q-73 202 -105 276q97 68 174 68q81 0 116 -54q33 -49 60 -150t46 -176q47 -188 135 -435q219 610 229 711z" />
    <glyph glyph-name="x" unicode="x" horiz-adv-x="1214" 
d="M82 930q-7 48 -7 52q0 9 1 17q127 48 259 48q46 0 122 -9q23 -10 43 -31t48.5 -68.5t141.5 -252.5q120 224 172 348q77 20 148 20t131 -18q-147 -238 -369 -491q176 -300 375 -434q0 -61 -46.5 -102t-112.5 -41q-9 0 -37.5 1.5t-76 28t-86.5 64t-84 100.5
q-68 95 -153 244q-22 -38 -89.5 -178.5t-113.5 -227.5q-77 -20 -147.5 -20t-130.5 18q58 106 197.5 288t205.5 257q-147 256 -246 342q-56 45 -145 45z" />
    <glyph glyph-name="y" unicode="y" horiz-adv-x="1282" 
d="M246 -283q11 -41 38.5 -73.5t67.5 -32.5q65 0 121 85.5t96 240.5q-20 57 -111.5 257t-215.5 426q-139 252 -204 274q-15 5 -32.5 6t-31 2t-17.5 1q-7 49 -7 55.5t1 14.5q161 90 300 90q59 0 114 -23t143.5 -233.5t200.5 -620.5q131 442 204 717q21 80 74.5 121t104.5 41
q148 0 188 -115q-12 0 -47.5 -37.5t-77.5 -102t-92.5 -174.5t-93 -226t-92.5 -247.5t-96.5 -251t-103.5 -230.5t-114 -191.5t-128 -129t-137.5 -48.5t-110 18.5t-67.5 49.5q-46 63 -46 136.5t49.5 128.5t122.5 72z" />
    <glyph glyph-name="z" unicode="z" horiz-adv-x="1241" 
d="M364 679q0 -9 1 -17q0 -10 -45 -21.5t-94 -11.5t-96.5 51t-47.5 154q0 150 139 202q70 27 159.5 27t326.5 -15.5t411 -23.5q19 -51 19 -102.5t-19 -110.5l-665 -596q179 -42 297 -42q227 0 342 136q52 -26 88 -76q-15 -220 -147 -291q-56 -30 -127.5 -30t-175 13
t-264.5 37t-278 38q-20 33 -20 96q0 104 16 140l676 591q-233 25 -281 25q-215 0 -215 -173z" />
    <glyph glyph-name="braceleft" unicode="{" horiz-adv-x="748" 
d="M352 649v-6q68 -13 118 -51q93 -71 93 -168q0 -144 9.5 -349t19.5 -253t17.5 -69t14.5 -31q10 -16 20 -24t10 -18t-19 -22q-41 -29 -110 -29t-110 45t-55.5 115t-21 168t-4.5 191q3 239 -31 376q-18 18 -30 26.5t-18.5 13.5t-16 10t-14 7.5t-14.5 7t-13 5.5q-22 8 -25 10
q-17 29 -17 56t17 55q81 16 131 55q30 133 33 474q1 107 14 208q26 211 182 211q44 0 82 -18t38 -38q0 -9 -5.5 -12.5t-11 -9t-11.5 -15.5q-16 -23 -29 -84t-22.5 -288t-9.5 -350q0 -145 -211 -199z" />
    <glyph glyph-name="bar" unicode="|" horiz-adv-x="543" 
d="M178 -346l-24 2040q19 8 91 8t91 -12q17 -97 34.5 -726.5t17.5 -952t-7 -365.5q-42 -6 -102 -6t-101 14z" />
    <glyph glyph-name="braceright" unicode="}" horiz-adv-x="748" 
d="M395 643v6q-211 55 -211 199q0 121 -9.5 349t-19 274.5t-17.5 67.5t-14 31q-11 16 -19 22q-10 8 -10 15q0 20 38 38t90 18t91.5 -29.5t58.5 -84t28 -122t11 -153.5t2 -167q2 -203 30 -337q50 -39 131 -55q17 -28 17 -55t-17 -56q-8 -4 -20 -8.5t-22.5 -9.5t-16.5 -8.5
t-16.5 -9.5t-18.5 -12q-20 -15 -37 -32q-30 -124 -32 -456q0 -110 -12 -214q-24 -225 -175 -225q-51 0 -91 17t-40 37q0 10 6 14t11.5 9.5t12.5 15.5q16 26 29 87t22 267t9 348q0 130 144 197q35 16 67 22z" />
    <glyph glyph-name="asciitilde" unicode="~" horiz-adv-x="1118" 
d="M205 637q-12 -2 -46.5 -2t-64.5 14q-1 8 -1 16q0 65 40.5 120.5t101.5 86t121.5 31t118.5 -20.5t99 -46q107 -68 207 -68t145 115h5q31 0 60 -10t35 -15q-3 -108 -77 -182t-187 -74q-100 0 -214.5 73t-223.5 73q-36 0 -74.5 -33t-44.5 -78z" />
    <glyph glyph-name="exclamdown" unicode="&#xa1;" horiz-adv-x="590" 
d="M185.5 1106q-53.5 52 -53.5 118t43.5 105.5t106.5 39.5t109 -40q61 -59 61 -128t-41.5 -108t-106.5 -39t-118.5 52zM402 907q5 -502 49 -1071q-51 -19 -132.5 -19t-193.5 19q9 725 54 1044q5 36 5 39q52 13 106.5 13t111.5 -25z" />
    <glyph glyph-name="cent" unicode="&#xa2;" horiz-adv-x="1186" 
d="M752 104q151 0 278 142q22 -15 45.5 -40.5t28.5 -47.5q-15 -21 -54.5 -56t-78.5 -60q-102 -63 -230 -79q-2 -105 -8 -184q-26 -13 -54.5 -13t-62.5 13v184q-222 19 -362.5 164.5t-140.5 372.5t138.5 383t364.5 178l2 199q27 8 55 8t56 -8q7 -57 10 -197q101 -8 187 -43.5
t136.5 -91t51.5 -117.5q0 -152 -158 -152q-54 0 -78 12.5t-24 14.5q2 13 2 57.5t-30.5 92.5t-84.5 73q3 -216 3 -461t-1 -344h9zM464 832q-56 -88 -56 -241.5t59 -270t149 -173.5v781q-96 -8 -152 -96z" />
    <glyph glyph-name="sterling" unicode="&#xa3;" horiz-adv-x="1235" 
d="M741 655h-196v-28q0 -80 -25.5 -158.5t-61.5 -132.5q-73 -111 -134 -161l-25 -21q74 6 291.5 17t290.5 17l14 125q13 19 48 35.5t87.5 16.5t81.5 -30q51 -53 51 -235q0 -77 -18 -98q-86 -2 -787 -2h-235q-20 7 -35.5 49.5t-15.5 118.5q27 15 69 53t70 75q74 96 74 192
t-11 167h-153q-10 13 -10 71t12 73q32 4 123 8q-2 10 -13.5 58.5t-14.5 66t-10 55.5q-11 67 -11 135q0 158 111 255.5t299.5 97.5t306.5 -68.5t118 -189.5q0 -53 -30 -89q-54 -67 -165 -67q-12 0 -42 2q1 9 1 28.5t-6 52t-20.5 69t-36.5 66.5q-51 67 -127 67t-108.5 -55
t-32.5 -115.5t27.5 -177t37.5 -185.5q136 0 218 -8q6 -23 6 -69t-13 -81z" />
    <glyph glyph-name="currency" unicode="&#xa4;" horiz-adv-x="1247" 
d="M113 1341q3 21 46.5 65.5t63.5 47.5q38 -28 178 -162q120 60 279 60q92 0 176 -43q131 137 158 157q31 -20 65.5 -55t46.5 -68q-60 -68 -135 -143q80 -100 80 -243.5t-84 -254.5q97 -93 148 -147q-18 -29 -54 -63.5t-69 -47.5q-70 60 -160 150q-114 -57 -246.5 -57
t-226.5 51q-90 -90 -152 -146q-21 3 -65 48t-45 65q24 34 131 147q-70 98 -70 237t86 245q-95 91 -151 157zM786 794.5q72 59.5 72 159.5t-64 155.5t-161 55.5t-171.5 -59.5t-74.5 -157t64.5 -155.5t163.5 -58t171 59.5z" />
    <glyph glyph-name="yen" unicode="&#xa5;" horiz-adv-x="1307" 
d="M1000.5 1322q3.5 35 3.5 66.5t-19 59.5q0 10 29 18.5t59 8.5q89 0 134.5 -56.5t45.5 -117.5t-22 -116.5t-61.5 -114.5t-83.5 -119q-124 -167 -201 -324q164 0 245 -9q7 -25 7 -69t-11 -70l-258 2l2 -80v-20q190 0 260 -6q7 -26 7 -70.5t-11 -71.5l-247 7q9 -78 34 -240
q-76 -26 -195.5 -26t-162.5 26l14 248l-247 6q-9 9 -9 52t11 59q116 10 251 12l3 108l-256 4q-9 12 -9 58.5t11 60.5q100 12 247 15q-7 12 -51.5 92t-63 112t-61 104.5t-68 110.5t-59.5 88q-61 90 -110 121q-20 13 -99 19q-17 48 -14 82q82 46 146 63.5t118 17.5t70 -1
q4 -4 30 -28.5t46 -46t59 -75.5t75 -118q89 -159 187 -414q86 193 153.5 365t71 207z" />
    <glyph glyph-name="brokenbar" unicode="&#xa6;" horiz-adv-x="510" 
d="M154 -346v844q19 8 91 8t91 -12q20 -148 20 -848q-42 -6 -102.5 -6t-99.5 14zM154 854v844q19 8 91 8t91 -12q20 -148 20 -848q-42 -6 -99.5 -6t-102.5 14z" />
    <glyph glyph-name="section" unicode="&#xa7;" horiz-adv-x="1139" 
d="M133 41q0 135 134 135q58 0 128 -35q-1 -8 -1 -21t2.5 -31t7.5 -37t13 -36.5t19 -33.5t26.5 -29.5t33.5 -23.5q38 -21 108.5 -21t113 41.5t42.5 111.5q0 49 -21.5 75.5t-35 39.5t-43.5 32q-50 30 -91 51q-167 85 -227 126q-147 98 -147 240q0 91 66.5 168.5t178.5 113.5
q-111 63 -155 111t-60 95t-16 108q0 152 109.5 227.5t287 75.5t282.5 -73t105 -189q0 -52 -27.5 -88.5t-85.5 -36.5q-75 0 -108 17.5t-33 19.5v16q0 213 -159 213q-154 0 -154 -137q0 -75 57 -125q48 -42 116.5 -75.5t93 -46t67 -35.5t65.5 -39.5t55.5 -41t50 -46.5
t35.5 -50q33 -51 33 -132.5t-53.5 -157.5t-161.5 -118q109 -54 165.5 -123.5t56.5 -171.5q0 -140 -116 -227.5t-317 -87.5q-331 0 -417 163q-23 42 -23 89zM565 838q-172 -57 -172 -161q0 -50 22 -76.5t47.5 -43t43.5 -25.5t52.5 -25.5t53.5 -25.5l33 -16q108 54 130.5 106
t13 83.5t-23 47.5t-24.5 27.5t-36.5 28t-40 25t-49.5 27.5t-50 28z" />
    <glyph glyph-name="dieresis" unicode="&#xa8;" horiz-adv-x="924" 
d="M370.5 1482q38.5 -35 38.5 -96.5t-47 -111t-109.5 -49.5t-102.5 36t-40 100.5t54 115.5q49 40 108.5 40t98 -35zM784 1502q39 -35 39 -96t-47 -111t-114 -50t-102.5 40t-35.5 101.5t54 110.5q49 40 108 40t98 -35z" />
    <glyph glyph-name="copyright" unicode="&#xa9;" horiz-adv-x="1870" 
d="M1737 784q0 -138 -44.5 -269.5t-124 -224t-190.5 -156.5q-214 -124 -520 -124q-138 0 -269.5 52t-232.5 141.5t-162 219.5t-61 297t69.5 315.5t191.5 244.5q251 195 638 195q210 0 393 -120q312 -205 312 -571zM1540.5 503.5q56.5 127.5 56.5 269.5t-52 248t-135 176
t-186.5 110.5t-234 40.5t-265 -41.5t-235.5 -120.5t-159 -202t-58 -261t50.5 -245.5t134 -181.5t191.5 -116.5t242 -42.5t264.5 40.5t230 119.5t156 206.5zM798 499.5q73 -89.5 180.5 -89.5t184.5 71q39 -17 56 -67q-117 -123 -298 -123t-293 112.5t-112 322.5t127.5 337
t329.5 127q115 0 227 -47q10 -16 10 -62l-6 -131q-35 -22 -77 -22q-78 0 -78 92q0 13 2 39q-29 24 -91 24t-101 -15.5t-70 -51.5q-64 -73 -64 -250t73 -266.5z" />
    <glyph glyph-name="ordfeminine" unicode="&#xaa;" horiz-adv-x="844" 
d="M727 967q25 -19 25 -39q-76 -92 -153.5 -92t-104.5 75q-50 -37 -106.5 -56t-119.5 -19t-119 40.5t-56 118.5t49 121q85 73 268 80l67 2q4 52 4 92q0 103 -96 103q-82 0 -82 -99q-38 -32 -83 -32q-85 0 -85 67q0 107 178 138q46 8 95 8t82.5 -6t65.5 -24.5t52 -50.5
q43 -71 43 -212l-4 -191q-3 -39 31 -39q25 0 49 15zM360 948q69 0 117 31q-7 49 -7 89t1 52l-70 -2q-57 0 -87.5 -27t-30.5 -67q0 -76 77 -76z" />
    <glyph glyph-name="guillemotleft" unicode="&#xab;" horiz-adv-x="1063" 
d="M870 272q-48 51 -110 112l-100 101q-104 104 -126 138t-22 51t22 50t67 81.5t83.5 88t101.5 102t91 91.5q25 -7 52 -35t42 -59l-279 -329l260 -320q-10 -22 -32.5 -43t-49.5 -29zM326 419q-116 115 -153.5 166t-37.5 90.5t35 84.5q97 125 428 422q25 -8 52.5 -36.5
t41.5 -58.5q-218 -235 -251 -275.5t-53.5 -67.5t-29 -45t-8.5 -29t4.5 -24.5t15.5 -32t21.5 -35.5t30.5 -42.5t35.5 -44.5t43 -51t45 -52.5t50 -58t51.5 -59.5q-10 -22 -32.5 -43t-49.5 -28q-123 105 -239 220z" />
    <glyph glyph-name="logicalnot" unicode="&#xac;" horiz-adv-x="1128" 
d="M143 809l564 6q195 0 278 -6q9 -74 9 -290.5t-3 -260.5q-23 -3 -75.5 -3t-84.5 7q-3 34 -3 193t3 198q-90 -5 -326.5 -5t-363.5 5q-7 24 -7 84t9 72z" />
    <glyph glyph-name="uni00AD" unicode="&#xad;" horiz-adv-x="936" 
d="M743 653h-608q-13 16 -13 86t15 90q126 18 325.5 18t289.5 -11q7 -31 7 -87t-16 -96z" />
    <glyph glyph-name="registered" unicode="&#xae;" horiz-adv-x="1870" 
d="M1737 784q0 -138 -44.5 -269.5t-124 -224t-190.5 -156.5q-214 -124 -520 -124q-138 0 -269.5 52t-232.5 141.5t-162 219.5t-61 297t69.5 315.5t191.5 244.5q251 195 638 195q210 0 393 -120q312 -205 312 -571zM1540.5 503.5q56.5 127.5 56.5 269.5t-52 248t-135 176
t-186.5 110.5t-234 40.5t-265 -41.5t-235.5 -120.5t-159 -202t-58 -261t50.5 -245.5t134 -181.5t191.5 -116.5t242 -42.5t264.5 40.5t230 119.5t156 206.5zM1203 304q-32 0 -70 24t-66.5 60t-54.5 85q-44 82 -74 182q-52 -6 -115 -6v-129l11 -184q-48 -17 -117.5 -17
t-89.5 17q20 121 20 188v467q0 83 -51 102q-10 4 -12 5q-9 13 -9 39v32q6 0 23 5q188 22 291.5 22t162.5 -14t107 -42q103 -61 103 -188q0 -202 -193 -268q29 -42 81.5 -119t73.5 -104q38 -49 57 -51q30 -2 54 10l21 -39q-60 -77 -153 -77zM823 1100v-359q231 7 252 147
q4 27 4 81t-43 94.5t-131 40.5q-32 0 -82 -4z" />
    <glyph glyph-name="macron" unicode="&#xaf;" horiz-adv-x="885" 
d="M819 1288h-758q-10 13 -10 64.5t12 68.5q95 14 400.5 14t361.5 -8q7 -26 7 -66t-13 -73z" />
    <glyph glyph-name="degree" unicode="&#xb0;" horiz-adv-x="823" 
d="M752 1270q0 -165 -104 -250.5t-267 -85.5q-122 0 -215.5 83.5t-93.5 207.5q0 157 107 242t274 85q72 0 139.5 -33.5t113.5 -100t46 -148.5zM287.5 1369.5q-39.5 -49.5 -39.5 -130t54 -120.5t124 -40t112 51t42 121t-50 119t-126.5 49t-116 -49.5z" />
    <glyph glyph-name="plusminus" unicode="&#xb1;" horiz-adv-x="1128" 
d="M487 319v338h-344q-10 13 -10 74t12 78q140 4 342 4v336q13 10 74 10t78 -12q4 -71 8 -332h340q6 -23 6 -75t-12 -83h-332q0 -212 -4 -344q-23 -6 -75 -6t-83 12zM871 161l116 -1q6 -22 6 -74.5t-12 -83.5h-838q-10 11 -10 73t12 79q317 7 726 7z" />
    <glyph glyph-name="twosuperior" unicode="&#xb2;" horiz-adv-x="879" 
d="M160 600q-17 36 -17 67.5t2 57.5q29 121 165 237q54 46 106 92q123 106 123 199q0 66 -30 88.5t-93 22.5t-103 -35v-141q-26 -33 -82.5 -33t-77 37t-20.5 95.5t17 86.5q94 103 268 103q221 0 289 -119q26 -45 26 -109t-36.5 -126.5t-93.5 -112.5t-116 -94
q-156 -116 -192 -179l266 15l8 71q28 37 80.5 37t76.5 -38.5t24 -109.5t-17 -110q-55 -2 -573 -2z" />
    <glyph glyph-name="threesuperior" unicode="&#xb3;" horiz-adv-x="801" 
d="M553 1079q145 -69 145 -214.5t-94.5 -214t-246.5 -68.5t-232 51q-12 50 -12 97.5t6 84.5q37 12 80 12t58 -21.5t15 -59t-2 -50.5q50 -20 103.5 -20t92 46t38.5 120q0 147 -156 147h-12l-60 -2q-6 29 -6 61q0 60 69 60t101 -2q47 71 47 134q0 124 -125 124q-31 0 -67 -6
v-84q0 -18 -39 -31q-13 -4 -29 -4q-46 0 -72 42t-26 89.5t10 71.5q98 35 186.5 35t139 -9t97.5 -30t74.5 -62t27.5 -98t-26.5 -103t-84.5 -96z" />
    <glyph glyph-name="acute" unicode="&#xb4;" horiz-adv-x="561" 
d="M129 1219q53 195 90 263.5t61 93.5q37 40 78 42q61 -2 106.5 -30.5t61.5 -78.5q-77 -59 -299 -340q-62 16 -98 50z" />
    <glyph glyph-name="mu" unicode="&#xb5;" horiz-adv-x="1407" 
d="M418 917l-19 -461q0 -143 28.5 -223.5t98 -80.5t122 32.5t157.5 128.5q0 308 2 734q97 17 176.5 17t130.5 -17q-15 -255 -15 -447q0 -405 24 -444q11 -18 32.5 -20t46.5 -2t39 -1q11 -19 11 -40t-3 -36q-123 -70 -210 -84t-130.5 -14t-66.5 34q-35 54 -35 191
q-88 -104 -181.5 -164.5t-202 -60.5t-187.5 90q13 -163 110.5 -297.5t253.5 -226.5q-99 -121 -252 -121q-57 0 -99.5 40t-68 105t-40.5 162q-27 166 -27 364t10 458.5t10 358t-8 150.5q93 17 166 17t119 -17q8 -47 8 -125z" />
    <glyph glyph-name="paragraph" unicode="&#xb6;" horiz-adv-x="1202" 
d="M926 1337l3 -1076q0 -433 -7 -490q-26 -7 -72.5 -7t-79.5 13v1632h-145q11 -325 11 -938t-11 -700q-26 -7 -72.5 -7t-79.5 13v1011q-103 6 -186.5 64.5t-128.5 146.5t-45 176.5t22 150.5t57 102.5t88.5 69t105.5 43.5t120 23q115 15 248 15l94 1q167 0 233 -9
q7 -26 7 -60t-13 -67q-123 -8 -142 -50q-8 -17 -7 -57z" />
    <glyph glyph-name="periodcentered" unicode="&#xb7;" horiz-adv-x="631" 
d="M213 752q54 45 117 45t104.5 -39t41.5 -109t-60 -127q-47 -41 -111 -41t-107.5 39.5t-43.5 108.5t59 123z" />
    <glyph glyph-name="cedilla" unicode="&#xb8;" horiz-adv-x="637" 
d="M221 -367q125 0 125 74q0 28 -26 45q-41 29 -127 29q-53 0 -80 53l80 176h102l-76 -141h21t39 -2t59 -7t65 -17t58 -28q59 -36 59 -96t-32.5 -98t-81.5 -58q-96 -40 -163 -40t-116 11t-86 38.5t-37 64t24.5 53.5t55.5 17q1 0 5 -7.5t13.5 -18.5t23.5 -22q33 -26 95 -26z
" />
    <glyph glyph-name="onesuperior" unicode="&#xb9;" horiz-adv-x="672" 
d="M516 1389l-6 -207v-359l8 -221q-68 -17 -143.5 -17t-95.5 17q16 146 16 223v287q0 64 6 142l2 26v6q-20 -28 -29.5 -38.5t-19.5 -23t-17.5 -19.5t-19.5 -18q-16 -15 -57 -46q-3 4 -17.5 22t-21.5 29q-25 37 -29 55q20 25 111 112t123.5 93t84 6t99.5 -18q6 -29 6 -51z
" />
    <glyph glyph-name="ordmasculine" unicode="&#xba;" horiz-adv-x="866" 
d="M774 1174q0 -173 -102 -262t-273 -89q-128 0 -217.5 87.5t-89.5 217.5q0 166 106.5 256.5t278.5 90.5q119 0 208 -84.5t89 -216.5zM324 1307.5q-33 -66.5 -33 -160.5t50 -161.5t118 -67.5q44 0 73 34q48 57 48 173t-45.5 182.5t-111.5 66.5t-99 -66.5z" />
    <glyph glyph-name="guillemotright" unicode="&#xbb;" horiz-adv-x="1063" 
d="M193 272q-27 8 -49.5 29t-32.5 43l260 320l-279 329q15 31 42 59t52 35q28 -29 91 -91.5t101.5 -102t83.5 -88t67 -81.5t22 -50t-17.5 -44t-54.5 -66.5t-76 -78.5l-101 -101q-61 -61 -109 -112zM893 760q35 -45 35 -84.5t-38.5 -90.5t-154.5 -166.5t-237 -219.5
q-27 7 -49.5 28t-32.5 43q183 208 215 252t50 70q32 48 32 68.5t-8.5 38.5t-29 45t-40 51t-56.5 65t-61 68q-49 54 -147 159q14 30 41.5 58.5t52.5 36.5q331 -297 428 -422z" />
    <glyph glyph-name="onequarter" unicode="&#xbc;" horiz-adv-x="1937" 
d="M1088 156q-30 44 -30 122q0 16 3 27q68 74 202 287t161 254q57 8 108 8t109 -8q12 -7 13 -63l-7 -210v-278q67 3 100 22q27 -13 27 -55t-32 -71.5t-93 -36.5q3 -85 10 -148q-66 -18 -133 -18t-96 18q6 76 8 150q-192 16 -237.5 16t-112.5 -16zM1444 301l-2 375
q-126 -236 -242 -367h29q4 0 215 -8zM577 1389l-6 -207v-359l8 -221q-68 -17 -143.5 -17t-95.5 17q16 146 16 223v287q0 64 6 142l2 26v6q-20 -28 -29.5 -38.5t-19.5 -23t-17.5 -19.5t-19.5 -18q-16 -15 -57 -46q-3 4 -17.5 22t-21.5 29q-25 37 -29 55q20 25 111 112
t123.5 93t84 6t99.5 -18q6 -29 6 -51zM1376 1524l-719 -1614q-16 -10 -74.5 -10t-70.5 12q28 108 322.5 765.5t389.5 852.5q26 6 75 6t77 -12z" />
    <glyph glyph-name="onehalf" unicode="&#xbd;" horiz-adv-x="1923" 
d="M577 1389l-6 -207v-359l8 -221q-68 -17 -143.5 -17t-95.5 17q16 146 16 223v287q0 64 6 142l2 26v6q-20 -28 -29.5 -38.5t-19.5 -23t-17.5 -19.5t-19.5 -18q-16 -15 -57 -46q-3 4 -17.5 22t-21.5 29q-25 37 -29 55q20 25 111 112t123.5 93t84 6t99.5 -18q6 -29 6 -51z
M1376 1524l-719 -1614q-16 -10 -74.5 -10t-70.5 12q28 108 322.5 765.5t389.5 852.5q26 6 75 6t77 -12zM1184 2q-17 36 -17 67.5t2 57.5q29 121 165 237q54 46 106 92q123 106 123 199q0 66 -30 88.5t-93 22.5t-103 -35v-141q-26 -33 -82.5 -33t-77 37t-20.5 95.5t17 86.5
q94 103 268 103q221 0 289 -119q26 -45 26 -109t-36.5 -126.5t-93.5 -112.5t-116 -94q-156 -116 -192 -179l266 15l8 71q28 37 80.5 37t76.5 -38.5t24 -109.5t-17 -110q-55 -2 -573 -2z" />
    <glyph glyph-name="threequarters" unicode="&#xbe;" horiz-adv-x="1860" 
d="M573 1079q145 -69 145 -214.5t-94.5 -214t-246.5 -68.5t-232 51q-12 50 -12 97.5t6 84.5q37 12 80 12t58 -21.5t15 -59t-2 -50.5q50 -20 103.5 -20t92 46t38.5 120q0 147 -156 147h-12l-60 -2q-6 29 -6 61q0 60 69 60t101 -2q47 71 47 134q0 124 -125 124q-31 0 -67 -6
v-84q0 -18 -39 -31q-13 -4 -29 -4q-46 0 -72 42t-26 89.5t10 71.5q98 35 186.5 35t139 -9t97.5 -30t74.5 -62t27.5 -98t-26.5 -103t-84.5 -96zM1108 156q-30 44 -30 122q0 16 3 27q68 74 202 287t161 254q57 8 108 8t109 -8q12 -7 13 -63l-7 -210v-278q67 3 100 22
q27 -13 27 -55t-32 -71.5t-93 -36.5q3 -85 10 -148q-66 -18 -133 -18t-96 18q6 76 8 150q-192 16 -237.5 16t-112.5 -16zM1464 301l-2 375q-126 -236 -242 -367h29q4 0 215 -8zM1397 1524l-719 -1614q-16 -10 -74.5 -10t-70.5 12q28 108 322.5 765.5t389.5 852.5q26 6 75 6
t77 -12z" />
    <glyph glyph-name="questiondown" unicode="&#xbf;" horiz-adv-x="1096" 
d="M473 919q43 19 93 19q82 0 124 -23q4 -31 4 -80t-19 -101.5t-49.5 -88t-67.5 -66.5l-74 -62t-68 -66q-68 -79 -68 -203t57.5 -192t156 -68t156 60t57.5 145.5t-50 158.5q16 49 81 72q24 8 52 8q185 0 185 -204q0 -219 -220 -319q-120 -55 -266 -55q-526 0 -526 394
q0 181 88 284q63 73 145 124.5t121 83.5q88 71 88 179zM695.5 1108q-53.5 -52 -118.5 -52t-106.5 39t-41.5 108t61 128q46 40 109 40t106.5 -39.5t43.5 -105.5t-53.5 -118z" />
    <glyph glyph-name="Agrave" unicode="&#xc0;" horiz-adv-x="1427" 
d="M1266 671q-22 239 -42.5 410.5t-33 213.5t-44 83.5t-77.5 55.5q-446 5 -725 20q-4 -13 -4 -64t16 -71q70 -10 82 -73q6 -29 6 -99t-14.5 -183t-48 -240.5t-80 -242t-117 -214.5t-153.5 -156q0 -60 58 -102.5t128 -42.5q9 0 19 1q230 29 323 529l408 -19q21 -355 63 -475
q41 -23 142.5 -23t173.5 23q-30 168 -44 299t-36 370zM937 1095.5q2 -38.5 8 -199.5t11 -267q-164 18 -336 18h-38q25 199 34 412.5t9 214.5q233 0 268 -14q21 -8 27.5 -32.5t10.5 -59t6 -73zM998 1636q-16 -47 -64 -88q-335 144 -426 160l-31 6q-2 13 -2 28t4.5 32.5
t12.5 33.5t20 30q50 60 105 60q137 0 381 -262z" />
    <glyph glyph-name="Aacute" unicode="&#xc1;" horiz-adv-x="1427" 
d="M1266 671q-22 239 -42.5 410.5t-33 213.5t-44 83.5t-77.5 55.5q-446 5 -725 20q-4 -13 -4 -64t16 -71q70 -10 82 -73q6 -29 6 -99t-14.5 -183t-48 -240.5t-80 -242t-117 -214.5t-153.5 -156q0 -60 58 -102.5t128 -42.5q9 0 19 1q230 29 323 529l408 -19q21 -355 63 -475
q41 -23 142.5 -23t173.5 23q-30 168 -44 299t-36 370zM937 1095.5q2 -38.5 8 -199.5t11 -267q-164 18 -336 18h-38q25 199 34 412.5t9 214.5q233 0 268 -14q21 -8 27.5 -32.5t10.5 -59t6 -73zM574 1634q247 263 382 263q65 0 114 -74q26 -39 26 -67.5t-2 -41.5
q-34 -4 -162 -50t-295 -118q-49 44 -63 88z" />
    <glyph glyph-name="Acircumflex" unicode="&#xc2;" horiz-adv-x="1427" 
d="M1266 671q-22 239 -42.5 410.5t-33 213.5t-44 83.5t-77.5 55.5q-446 5 -725 20q-4 -13 -4 -64t16 -71q70 -10 82 -73q6 -29 6 -99t-14.5 -183t-48 -240.5t-80 -242t-117 -214.5t-153.5 -156q0 -60 58 -102.5t128 -42.5q9 0 19 1q230 29 323 529l408 -19q21 -355 63 -475
q41 -23 142.5 -23t173.5 23q-30 168 -44 299t-36 370zM937 1095.5q2 -38.5 8 -199.5t11 -267q-164 18 -336 18h-38q25 199 34 412.5t9 214.5q233 0 268 -14q21 -8 27.5 -32.5t10.5 -59t6 -73zM410 1665q281 268 366 268q45 0 150 -77.5t221 -190.5q-7 -26 -36 -56t-58 -44
l-285 178l-272 -174q-23 10 -51 39.5t-35 56.5z" />
    <glyph glyph-name="Atilde" unicode="&#xc3;" horiz-adv-x="1427" 
d="M1266 671q-22 239 -42.5 410.5t-33 213.5t-44 83.5t-77.5 55.5q-446 5 -725 20q-4 -13 -4 -64t16 -71q70 -10 82 -73q6 -29 6 -99t-14.5 -183t-48 -240.5t-80 -242t-117 -214.5t-153.5 -156q0 -60 58 -102.5t128 -42.5q9 0 19 1q230 29 323 529l408 -19q21 -355 63 -475
q41 -23 142.5 -23t173.5 23q-30 168 -44 299t-36 370zM937 1095.5q2 -38.5 8 -199.5t11 -267q-164 18 -336 18h-38q25 199 34 412.5t9 214.5q233 0 268 -14q21 -8 27.5 -32.5t10.5 -59t6 -73zM1151 1886q37 -14 57 -61q-33 -104 -93.5 -155.5t-140 -51.5t-194.5 44
t-163.5 44t-98 -25t-72.5 -63q-25 11 -57 61q32 101 94 148t150.5 48t184 -34t165.5 -35q106 0 168 80z" />
    <glyph glyph-name="Adieresis" unicode="&#xc4;" horiz-adv-x="1427" 
d="M1266 671q-22 239 -42.5 410.5t-33 213.5t-44 83.5t-77.5 55.5q-446 5 -725 20q-4 -13 -4 -64t16 -71q70 -10 82 -73q6 -29 6 -99t-14.5 -183t-48 -240.5t-80 -242t-117 -214.5t-153.5 -156q0 -60 58 -102.5t128 -42.5q9 0 19 1q230 29 323 529l408 -19q21 -355 63 -475
q41 -23 142.5 -23t173.5 23q-30 168 -44 299t-36 370zM937 1095.5q2 -38.5 8 -199.5t11 -267q-164 18 -336 18h-38q25 199 34 412.5t9 214.5q233 0 268 -14q21 -8 27.5 -32.5t10.5 -59t6 -73zM680 1860.5q39 -35.5 39 -96.5t-46.5 -110.5t-109.5 -49.5t-103 36t-40 101
t54 114q50 41 108.5 41t97.5 -35.5zM1124.5 1881q38.5 -35 38.5 -96.5t-47 -111t-114 -49.5t-102 38.5t-35 102t53 111.5q49 40 108.5 40t98 -35z" />
    <glyph glyph-name="Aring" unicode="&#xc5;" horiz-adv-x="1427" 
d="M1266 671q-22 239 -42.5 410.5t-33 213.5t-44 83.5t-77.5 55.5q-446 5 -725 20q-4 -13 -4 -64t16 -71q70 -10 82 -73q6 -29 6 -99t-14.5 -183t-48 -240.5t-80 -242t-117 -214.5t-153.5 -156q0 -60 58 -102.5t128 -42.5q9 0 19 1q230 29 323 529l408 -19q21 -355 63 -475
q41 -23 142.5 -23t173.5 23q-30 168 -44 299t-36 370zM937 1095.5q2 -38.5 8 -199.5t11 -267q-164 18 -336 18h-38q25 199 34 412.5t9 214.5q233 0 268 -14q21 -8 27.5 -32.5t10.5 -59t6 -73zM978.5 1963q64.5 -56 64.5 -155.5t-72.5 -159t-171.5 -59.5t-163.5 58
t-64.5 155.5t74.5 157t171.5 59.5t161.5 -56zM740.5 1867.5q-21.5 -26.5 -21.5 -69.5t29 -64.5t66.5 -21.5t60 27t22.5 65t-26.5 64t-67.5 26t-62.5 -26.5z" />
    <glyph glyph-name="AE" unicode="&#xc6;" horiz-adv-x="2007" 
d="M1884 1151q-31 -59 -116 -59t-119 53v121q-292 14 -494 14q25 -113 25 -417v-62l458 22q17 -18 17 -77.5t-10 -116.5q-55 -8 -171 -8t-294 20v-31l-7 -342q0 -106 23 -114q161 0 453 14v121q17 33 78 47q24 6 53 6q73 0 104 -59.5t31 -204.5q0 -54 -3 -71.5t-14 -26.5
q-385 16 -899 20q-53 0 -75 91q-19 82 -20 141l-1 26l-2 221l-342 17q-93 -500 -323 -529q-10 -1 -19 -1q-70 0 -128 42.5t-58 102.5q83 56 153.5 156t117 214.5t80.5 242.5q62 241 62 448q0 71 -17 105t-71 42q-16 20 -16 71t4 64q275 -16 458.5 -17.5t327.5 -0.5t230 2
q237 3 538 16q11 -9 14 -27t3 -71q0 -146 -31 -205zM891 1260l-23 6q-67 8 -243 8q0 -131 -14.5 -324t-28.5 -303h41q125 0 278 -12v541q0 52 -10 84z" />
    <glyph glyph-name="Ccedilla" unicode="&#xc7;" horiz-adv-x="1432" 
d="M961 139q152 0 299 127q59 -30 79 -100q-171 -179 -419 -202l-41 -79h21t39 -2t59 -7t65 -16.5t58 -28.5q59 -36 59 -95.5t-32.5 -98t-81.5 -58.5q-97 -40 -163.5 -40t-115.5 11t-86 38.5t-37 64t24.5 54t54.5 17.5q1 0 5.5 -7.5t13.5 -18.5t24 -22q34 -26 95 -26
q125 0 125 74q0 73 -154 73q-54 0 -80 53l49 109q-236 2 -405 112q-293 190 -293 636q0 182 60 328t169 243q224 199 590 199q118 0 194.5 -19t170.5 -63q18 -22 18 -55.5v-43.5l-14 -221q-56 -37 -102.5 -37t-73 10.5t-42 27t-24.5 41.5q-14 39 -14 82t2 81q-39 41 -176 41
q-317 0 -398 -333q-24 -99 -24 -240t40.5 -262.5t110.5 -195.5q143 -151 351 -151z" />
    <glyph glyph-name="Egrave" unicode="&#xc8;" horiz-adv-x="1286" 
d="M1183 283q31 -59 31 -174t-16 -129q-354 15 -648.5 17t-377.5 3q29 239 29 528v648q0 87 -27 112q-12 11 -35 19q-15 20 -15 64.5t3 62.5q89 1 250 2t249 2q247 3 572 16q16 -14 16 -129t-31 -174t-116 -59t-119 53v121q-292 14 -465 14q25 -110 25 -270v-23v-186l430 22
q16 -19 16 -76.5t-10 -117.5q-55 -8 -156.5 -8t-279.5 20v-195v-23q0 -161 -25 -269q173 0 465 14v121q17 33 78 47q24 6 53 6q73 0 104 -59zM863 1636q-16 -47 -64 -88q-335 144 -426 160l-31 6q-2 13 -2 41.5t26 67.5t58.5 57t57.5 18q137 0 381 -262z" />
    <glyph glyph-name="Eacute" unicode="&#xc9;" horiz-adv-x="1286" 
d="M1183 283q31 -59 31 -174t-16 -129q-354 15 -648.5 17t-377.5 3q29 239 29 528v648q0 87 -27 112q-12 11 -35 19q-15 20 -15 64.5t3 62.5q89 1 250 2t249 2q247 3 572 16q16 -14 16 -129t-31 -174t-116 -59t-119 53v121q-292 14 -465 14q25 -110 25 -270v-23v-186l430 22
q16 -19 16 -76.5t-10 -117.5q-55 -8 -156.5 -8t-279.5 20v-195v-23q0 -161 -25 -269q173 0 465 14v121q17 33 78 47q24 6 53 6q73 0 104 -59zM502 1634q247 263 382 263q65 0 114 -74q26 -39 26 -67.5t-2 -41.5q-34 -4 -162 -50t-295 -118q-49 44 -63 88z" />
    <glyph glyph-name="Ecircumflex" unicode="&#xca;" horiz-adv-x="1286" 
d="M1183 283q31 -59 31 -174t-16 -129q-354 15 -648.5 17t-377.5 3q29 239 29 528v648q0 87 -27 112q-12 11 -35 19q-15 20 -15 64.5t3 62.5q89 1 250 2t249 2q247 3 572 16q16 -14 16 -129t-31 -174t-116 -59t-119 53v121q-292 14 -465 14q25 -110 25 -270v-23v-186l430 22
q16 -19 16 -76.5t-10 -117.5q-55 -8 -156.5 -8t-279.5 20v-195v-23q0 -161 -25 -269q173 0 465 14v121q17 33 78 47q24 6 53 6q73 0 104 -59zM353 1665q281 268 366 268q45 0 150 -77.5t221 -190.5q-7 -26 -36 -56t-58 -44l-285 178l-272 -174q-23 10 -51 39.5t-35 56.5z
" />
    <glyph glyph-name="Edieresis" unicode="&#xcb;" horiz-adv-x="1286" 
d="M1183 283q31 -59 31 -174t-16 -129q-354 15 -648.5 17t-377.5 3q29 239 29 528v648q0 87 -27 112q-12 11 -35 19q-15 20 -15 64.5t3 62.5q89 1 250 2t249 2q247 3 572 16q16 -14 16 -129t-31 -174t-116 -59t-119 53v121q-292 14 -465 14q25 -110 25 -270v-23v-186l430 22
q16 -19 16 -76.5t-10 -117.5q-55 -8 -156.5 -8t-279.5 20v-195v-23q0 -161 -25 -269q173 0 465 14v121q17 33 78 47q24 6 53 6q73 0 104 -59zM585 1860.5q39 -35.5 39 -96.5t-46.5 -110.5t-109.5 -49.5t-103 36t-40 101t54 114q50 41 108.5 41t97.5 -35.5zM1029.5 1881
q38.5 -35 38.5 -96.5t-47 -111t-114 -49.5t-102 38.5t-35 102t53 111.5q49 40 108.5 40t98 -35z" />
    <glyph glyph-name="Igrave" unicode="&#xcc;" horiz-adv-x="743" 
d="M264 322v802q0 126 -73 162q-9 5 -28.5 11t-23.5 8q-15 20 -15 65.5t3 63.5q50 10 179 10t265 -10v-1115q0 -96 13 -267l4 -52q-85 -26 -202.5 -26t-149.5 26q28 211 28 322zM529 1636q-16 -47 -64 -88q-335 144 -426 160l-31 6q-2 13 -2 41.5t26 67.5t58.5 57t57.5 18
q137 0 381 -262z" />
    <glyph glyph-name="Iacute" unicode="&#xcd;" horiz-adv-x="743" 
d="M264 322v802q0 126 -73 162q-9 5 -28.5 11t-23.5 8q-15 20 -15 65.5t3 63.5q50 10 179 10t265 -10v-1115q0 -96 13 -267l4 -52q-85 -26 -202.5 -26t-149.5 26q28 211 28 322zM207 1634q247 263 382 263q48 0 94 -49t46 -109q0 -12 -2 -25q-34 -4 -162 -50t-295 -118
q-49 44 -63 88z" />
    <glyph glyph-name="Icircumflex" unicode="&#xce;" horiz-adv-x="743" 
d="M264 322v802q0 126 -73 162q-9 5 -28.5 11t-23.5 8q-15 20 -15 65.5t3 63.5q50 10 179 10t265 -10v-1115q0 -96 13 -267l4 -52q-85 -26 -202.5 -26t-149.5 26q28 211 28 322zM2 1665q281 268 366 268q45 0 150 -77.5t221 -190.5q-7 -26 -36 -56t-58 -44l-285 178
l-272 -174q-23 10 -51 39.5t-35 56.5z" />
    <glyph glyph-name="Idieresis" unicode="&#xcf;" horiz-adv-x="743" 
d="M264 322v802q0 126 -73 162q-9 5 -28.5 11t-23.5 8q-15 20 -15 65.5t3 63.5q50 10 179 10t265 -10v-1115q0 -96 13 -267l4 -52q-85 -26 -202.5 -26t-149.5 26q28 211 28 322zM286 1860.5q39 -35.5 39 -96.5t-46.5 -110.5t-109.5 -49.5t-103 36t-40 101t54 114
q50 41 108.5 41t97.5 -35.5zM730.5 1881q38.5 -35 38.5 -96.5t-47 -111t-114 -49.5t-102 38.5t-35 102t53 111.5q49 40 108.5 40t98 -35z" />
    <glyph glyph-name="Eth" unicode="&#xd0;" horiz-adv-x="1645" 
d="M319 0q-65 28 -74 132q-7 82 -7 249v276l-103 2q-12 17 -12 79t10 73q45 7 109 10q1 35 1 121t-3 217q-7 86 -47 111q-16 9 -48 20q-12 9 -12 55t4 58q345 77 527 77q426 0 660 -205q198 -174 198 -484q0 -250 -119 -436.5t-327.5 -283t-479.5 -96.5q-148 0 -277 25z
M545 1012l-2 -189q176 -4 241 -10q10 -32 10 -70t-28 -90l-229 2q-3 -201 -3 -240.5t1 -78.5q0 -191 34 -219q36 -6 78 -6t101 3t123.5 27.5t123.5 74.5t102 121q95 157 95 404q0 348 -230 507q-126 87 -259 87t-183 -14q25 -104 25 -250v-59z" />
    <glyph glyph-name="Ntilde" unicode="&#xd1;" horiz-adv-x="1501" 
d="M1378 4q-62 -14 -89.5 -14t-135.5 12q-207 144 -741 1145q46 -733 76 -1038l10 -101q-89 -25 -174.5 -25t-116.5 25q26 158 26 817q0 342 -6.5 383t-18.5 58q-18 24 -42 31t-27 8q-15 20 -15 65.5t3 63.5q50 10 132 10t218 -10q56 -25 145 -145.5t168.5 -256.5
t199 -342.5t192.5 -322.5l-52 1056q76 23 144.5 23t103.5 -29q-8 -100 -8 -492t8 -921zM1143 1886q37 -14 57 -61q-33 -104 -93.5 -155.5t-140 -51.5t-194.5 44t-163.5 44t-98 -25t-72.5 -63q-25 11 -57 61q32 101 94 148t150.5 48t184 -34t165.5 -35q106 0 168 80z" />
    <glyph glyph-name="Ograve" unicode="&#xd2;" 
d="M1486 268.5q-128 -196.5 -368 -268.5q-115 -34 -249.5 -34t-269.5 48.5t-241.5 137t-170.5 226.5t-64 304q0 310 143 503t412 265q93 25 198.5 25t212.5 -29t201.5 -89t167.5 -143q156 -178 156 -463.5t-128 -482zM724 155q82 -43 173 -43t161.5 33t115.5 87.5t75 129.5
q54 135 54 320q0 281 -133 463t-326 182q-76 0 -147.5 -28t-123 -89.5t-77.5 -141.5q-50 -148 -50 -307t36 -281t98 -202t144 -123zM1022 1636q-16 -47 -64 -88q-335 144 -426 160l-31 6q-2 13 -2 34t12 49q24 56 87 91q18 10 43 10q137 0 381 -262z" />
    <glyph glyph-name="Oacute" unicode="&#xd3;" 
d="M1486 268.5q-128 -196.5 -368 -268.5q-115 -34 -249.5 -34t-269.5 48.5t-241.5 137t-170.5 226.5t-64 304q0 310 143 503t412 265q93 25 198.5 25t212.5 -29t201.5 -89t167.5 -143q156 -178 156 -463.5t-128 -482zM724 155q82 -43 173 -43t161.5 33t115.5 87.5t75 129.5
q54 135 54 320q0 281 -133 463t-326 182q-76 0 -147.5 -28t-123 -89.5t-77.5 -141.5q-50 -148 -50 -307t36 -281t98 -202t144 -123zM680 1634q247 263 382 263q65 0 114 -74q26 -39 26 -67.5t-2 -41.5q-34 -4 -162 -50t-295 -118q-49 44 -63 88z" />
    <glyph glyph-name="Ocircumflex" unicode="&#xd4;" 
d="M1486 268.5q-128 -196.5 -368 -268.5q-115 -34 -249.5 -34t-269.5 48.5t-241.5 137t-170.5 226.5t-64 304q0 310 143 503t412 265q93 25 198.5 25t212.5 -29t201.5 -89t167.5 -143q156 -178 156 -463.5t-128 -482zM724 155q82 -43 173 -43t161.5 33t115.5 87.5t75 129.5
q54 135 54 320q0 281 -133 463t-326 182q-76 0 -147.5 -28t-123 -89.5t-77.5 -141.5q-50 -148 -50 -307t36 -281t98 -202t144 -123zM496 1665q281 268 366 268q45 0 150 -77.5t221 -190.5q-7 -26 -36 -56t-58 -44l-285 178l-272 -174q-23 10 -51 39.5t-35 56.5z" />
    <glyph glyph-name="Otilde" unicode="&#xd5;" 
d="M1486 268.5q-128 -196.5 -368 -268.5q-115 -34 -249.5 -34t-269.5 48.5t-241.5 137t-170.5 226.5t-64 304q0 310 143 503t412 265q93 25 198.5 25t212.5 -29t201.5 -89t167.5 -143q156 -178 156 -463.5t-128 -482zM724 155q82 -43 173 -43t161.5 33t115.5 87.5t75 129.5
q54 135 54 320q0 281 -133 463t-326 182q-76 0 -147.5 -28t-123 -89.5t-77.5 -141.5q-50 -148 -50 -307t36 -281t98 -202t144 -123zM1237 1886q37 -14 57 -61q-33 -104 -93.5 -155.5t-140 -51.5t-194.5 44t-163.5 44t-98 -25t-72.5 -63q-25 11 -57 61q32 101 94 148
t150.5 48t184 -34t165.5 -35q106 0 168 80z" />
    <glyph glyph-name="Odieresis" unicode="&#xd6;" 
d="M1486 268.5q-128 -196.5 -368 -268.5q-115 -34 -249.5 -34t-269.5 48.5t-241.5 137t-170.5 226.5t-64 304q0 310 143 503t412 265q93 25 198.5 25t212.5 -29t201.5 -89t167.5 -143q156 -178 156 -463.5t-128 -482zM724 155q82 -43 173 -43t161.5 33t115.5 87.5t75 129.5
q54 135 54 320q0 281 -133 463t-326 182q-76 0 -147.5 -28t-123 -89.5t-77.5 -141.5q-50 -148 -50 -307t36 -281t98 -202t144 -123zM786 1860.5q39 -35.5 39 -96.5t-46.5 -110.5t-109.5 -49.5t-103 36t-40 101t54 114q50 41 108.5 41t97.5 -35.5zM1230.5 1881
q38.5 -35 38.5 -96.5t-47 -111t-114 -49.5t-102 38.5t-35 102t53 111.5q49 40 108.5 40t98 -35z" />
    <glyph glyph-name="multiply" unicode="&#xd7;" horiz-adv-x="1128" 
d="M565 612l-286 -286q-18 3 -61 47t-46 61q63 72 279 291q-225 225 -285 293q13 24 49.5 58.5t65.5 47.5l282 -282q212 212 289 280q25 -16 59.5 -51t46.5 -65l-278 -279l283 -283q-5 -18 -48.5 -60.5t-60.5 -45.5q-88 75 -289 274z" />
    <glyph glyph-name="Oslash" unicode="&#xd8;" 
d="M1614 768q0 -303 -128 -499.5t-368 -268.5q-115 -34 -252.5 -34t-279.5 52l-48 -94q-9 -3 -36 -3t-67 7t-47 15q9 24 64 140q-152 93 -240.5 246t-88.5 353q0 310 143 503t412 265q91 25 217.5 25t268.5 -55q40 73 51 89q9 1 33 1q77 0 123 -25l-69 -135
q143 -93 227.5 -241t84.5 -341zM684 179q97 -67 200.5 -67t174 33t115.5 87.5t75 129.5q54 135 54 320q0 272 -127 454zM446 750q0 -281 123 -456q279 559 491 961q-102 72 -218 72q-74 0 -145.5 -28t-123 -89.5t-77.5 -141.5q-50 -148 -50 -318z" />
    <glyph glyph-name="Ugrave" unicode="&#xd9;" horiz-adv-x="1481" 
d="M1366 1354l1 -309q0 -295 -15.5 -432.5t-36 -228t-51.5 -155.5t-75.5 -117t-104.5 -84q-121 -63 -278 -63t-264.5 45.5t-189 131.5t-128 221t-46.5 304v5l2 452q0 130 -36 158q-18 15 -52 23q-19 24 -19 69t3 60q50 10 165.5 10t252.5 -10v-174l-2 -510q-1 -21 -1 -123
t24.5 -214t72.5 -175q91 -117 266 -117q109 0 163 67q70 86 70 459v72q-4 493 -13 661l-3 56l270 14q25 -27 25 -96zM961 1636q-16 -47 -64 -88q-335 144 -426 160l-31 6q-2 13 -2 41.5t26 67.5t58.5 57t57.5 18q137 0 381 -262z" />
    <glyph glyph-name="Uacute" unicode="&#xda;" horiz-adv-x="1481" 
d="M1366 1354l1 -309q0 -295 -15.5 -432.5t-36 -228t-51.5 -155.5t-75.5 -117t-104.5 -84q-121 -63 -278 -63t-264.5 45.5t-189 131.5t-128 221t-46.5 304v5l2 452q0 130 -36 158q-18 15 -52 23q-19 24 -19 69t3 60q50 10 165.5 10t252.5 -10v-174l-2 -510q-1 -21 -1 -123
t24.5 -214t72.5 -175q91 -117 266 -117q109 0 163 67q70 86 70 459v72q-4 493 -13 661l-3 56l270 14q25 -27 25 -96zM576 1634q247 263 382 263q48 0 94 -49t46 -109q0 -12 -2 -25q-34 -4 -162 -50t-295 -118q-49 44 -63 88z" />
    <glyph glyph-name="Ucircumflex" unicode="&#xdb;" horiz-adv-x="1481" 
d="M1366 1354l1 -309q0 -295 -15.5 -432.5t-36 -228t-51.5 -155.5t-75.5 -117t-104.5 -84q-121 -63 -278 -63t-264.5 45.5t-189 131.5t-128 221t-46.5 304v5l2 452q0 130 -36 158q-18 15 -52 23q-19 24 -19 69t3 60q50 10 165.5 10t252.5 -10v-174l-2 -510q-1 -21 -1 -123
t24.5 -214t72.5 -175q91 -117 266 -117q109 0 163 67q70 86 70 459v72q-4 493 -13 661l-3 56l270 14q25 -27 25 -96zM412 1665q281 268 366 268q45 0 150 -77.5t221 -190.5q-7 -26 -36 -56t-58 -44l-285 178l-272 -174q-23 10 -51 39.5t-35 56.5z" />
    <glyph glyph-name="Udieresis" unicode="&#xdc;" horiz-adv-x="1481" 
d="M1366 1354l1 -309q0 -295 -15.5 -432.5t-36 -228t-51.5 -155.5t-75.5 -117t-104.5 -84q-121 -63 -278 -63t-264.5 45.5t-189 131.5t-128 221t-46.5 304v5l2 452q0 130 -36 158q-18 15 -52 23q-19 24 -19 69t3 60q50 10 165.5 10t252.5 -10v-174l-2 -510q-1 -21 -1 -123
t24.5 -214t72.5 -175q91 -117 266 -117q109 0 163 67q70 86 70 459v72q-4 493 -13 661l-3 56l270 14q25 -27 25 -96zM682 1860.5q39 -35.5 39 -96.5t-46.5 -110.5t-109.5 -49.5t-103 36t-40 101t54 114q50 41 108.5 41t97.5 -35.5zM1126.5 1881q38.5 -35 38.5 -96.5
t-47 -111t-114 -49.5t-102 38.5t-35 102t53 111.5q49 40 108.5 40t98 -35z" />
    <glyph glyph-name="Yacute" unicode="&#xdd;" horiz-adv-x="1272" 
d="M858 401q0 -129 43 -401q-76 -26 -195.5 -26t-162.5 26l20 322l6 286q-204 368 -264 454q-109 157 -160 189q-19 13 -98 19q-17 48 -14 82q82 46 146 63.5t118 17.5t70 -1q4 -4 30 -28.5t46 -46t59 -75.5t75 -118q89 -159 187 -414q216 487 225 581q2 16 2 53t-18 64
q0 10 29 18.5t59 8.5q89 0 134.5 -56.5t45.5 -118.5t-23.5 -120t-66 -119.5t-89.5 -126.5q-130 -178 -208 -348zM553 1634q247 263 382 263q48 0 94 -49t46 -109q0 -12 -2 -25q-34 -4 -162 -50t-295 -118q-49 44 -63 88z" />
    <glyph glyph-name="Thorn" unicode="&#xde;" horiz-adv-x="1413" 
d="M266 322l-2 827q0 128 -72 162q-9 4 -29.5 10.5t-23.5 7.5q-15 20 -15 65.5t3 63.5q43 10 166.5 10t238.5 -8q8 0 16.5 -21.5t8.5 -49.5v-115q74 2 196.5 1.5t198.5 -16.5t143.5 -48.5t117.5 -78.5q108 -101 108 -264q0 -520 -762 -528l16 -340q-85 -26 -195 -26t-142 26
q28 211 28 322zM1024 815q0 307 -322 307q-67 0 -145 -8l2 -618q329 11 415 130q50 67 50 189z" />
    <glyph glyph-name="germandbls" unicode="&#xdf;" horiz-adv-x="1391" 
d="M813.5 111.5q28.5 -31.5 90 -31.5t94 40t32.5 83t-4 67t-9.5 42.5t-20 40t-24.5 35t-36 36.5q-33 31 -92 80q-118 83 -165 142t-63 109t-16 109q0 114 67 197.5t160 97.5q0 128 -51 202.5t-176 74.5q-188 0 -188 -150q0 -44 21.5 -136.5t21.5 -129.5q0 -872 20 -1018
q-51 -21 -143 -21t-158 19q-10 476 -10 803q-56 6 -107 6q-5 8 -5 49.5t5 50.5q78 9 107 11q4 214 4 217q11 265 226 370q123 60 299 60t294.5 -95.5t118.5 -265.5q0 -61 -25 -84q-71 -3 -152 -70t-81 -139q0 -122 90 -200q41 -36 102.5 -82t100 -76.5t77.5 -72.5
q78 -82 78 -194.5t-45 -182.5q-92 -144 -334 -144q-225 0 -326 117q-52 59 -52 120q0 130 140 130q63 0 125 -34l3 -1q-22 -53 -22 -101.5t28.5 -80z" />
    <glyph glyph-name="agrave" unicode="&#xe0;" horiz-adv-x="1305" 
d="M1081 565l-6 -336v-10q0 -55 52 -55q40 0 85 26q14 -12 26.5 -33.5t14.5 -33.5q-124 -158 -257.5 -158t-186.5 131q-92 -64 -187.5 -97.5t-164 -33.5t-127 15t-108.5 48q-108 70 -108 231q0 86 47.5 150.5t129.5 101.5q157 71 375 77l116 4q7 81 7 128q0 106 -40.5 160
t-150.5 54q-66 0 -102.5 -46t-36.5 -136q0 -12 -34 -29q-57 -27 -113.5 -27t-90 32t-33.5 90t42 109t112 79q139 55 317 55q186 0 272 -59q78 -52 111 -149q39 -113 39 -288zM782 201q-13 73 -13 126.5t3 149.5l-139 -6q-107 0 -165 -52t-58 -130t34 -112t137.5 -34
t200.5 58zM818 1219q-36 -34 -99 -50q-219 279 -299 340q17 50 62 78.5t106 30.5q89 -4 163 -192q33 -83 67 -207z" />
    <glyph glyph-name="aacute" unicode="&#xe1;" horiz-adv-x="1305" 
d="M1081 565l-6 -336v-10q0 -55 52 -55q40 0 85 26q14 -12 26.5 -33.5t14.5 -33.5q-124 -158 -257.5 -158t-186.5 131q-92 -64 -187.5 -97.5t-164 -33.5t-127 15t-108.5 48q-108 70 -108 231q0 86 47.5 150.5t129.5 101.5q157 71 375 77l116 4q7 81 7 128q0 106 -40.5 160
t-150.5 54q-66 0 -102.5 -46t-36.5 -136q0 -12 -34 -29q-57 -27 -113.5 -27t-90 32t-33.5 90t42 109t112 79q139 55 317 55q186 0 272 -59q78 -52 111 -149q39 -113 39 -288zM782 201q-13 73 -13 126.5t3 149.5l-139 -6q-107 0 -165 -52t-58 -130t34 -112t137.5 -34
t200.5 58zM489 1219q53 195 90 263.5t61 93.5q37 40 78 42q61 -2 106.5 -30.5t61.5 -78.5q-77 -59 -299 -340q-62 16 -98 50z" />
    <glyph glyph-name="acircumflex" unicode="&#xe2;" horiz-adv-x="1305" 
d="M1081 565l-6 -336v-10q0 -55 52 -55q40 0 85 26q14 -12 26.5 -33.5t14.5 -33.5q-124 -158 -257.5 -158t-186.5 131q-92 -64 -187.5 -97.5t-164 -33.5t-127 15t-108.5 48q-108 70 -108 231q0 86 47.5 150.5t129.5 101.5q157 71 375 77l116 4q7 81 7 128q0 106 -40.5 160
t-150.5 54q-66 0 -102.5 -46t-36.5 -136q0 -12 -34 -29q-57 -27 -113.5 -27t-90 32t-33.5 90t42 109t112 79q139 55 317 55q186 0 272 -59q78 -52 111 -149q39 -113 39 -288zM782 201q-13 73 -13 126.5t3 149.5l-139 -6q-107 0 -165 -52t-58 -130t34 -112t137.5 -34
t200.5 58zM313 1239q76 133 190 248t160 115t159.5 -123t166.5 -228q-11 -24 -45.5 -47.5t-63.5 -29.5l-223 225l-235 -219q-27 5 -64.5 24t-44.5 35z" />
    <glyph glyph-name="atilde" unicode="&#xe3;" horiz-adv-x="1305" 
d="M1081 565l-6 -336v-10q0 -55 52 -55q40 0 85 26q14 -12 26.5 -33.5t14.5 -33.5q-124 -158 -257.5 -158t-186.5 131q-92 -64 -187.5 -97.5t-164 -33.5t-127 15t-108.5 48q-108 70 -108 231q0 86 47.5 150.5t129.5 101.5q157 71 375 77l116 4q7 81 7 128q0 106 -40.5 160
t-150.5 54q-66 0 -102.5 -46t-36.5 -136q0 -12 -34 -29q-57 -27 -113.5 -27t-90 32t-33.5 90t42 109t112 79q139 55 317 55q186 0 272 -59q78 -52 111 -149q39 -113 39 -288zM782 201q-13 73 -13 126.5t3 149.5l-139 -6q-107 0 -165 -52t-58 -130t34 -112t137.5 -34
t200.5 58zM1010 1501q37 -14 57 -61q-33 -104 -93.5 -155.5t-140 -51.5t-194.5 44t-163.5 44t-98 -25t-72.5 -63q-25 11 -57 61q32 101 94 148t150.5 48t184.5 -34t165 -35q106 0 168 80z" />
    <glyph glyph-name="adieresis" unicode="&#xe4;" horiz-adv-x="1305" 
d="M1081 565l-6 -336v-10q0 -55 52 -55q40 0 85 26q14 -12 26.5 -33.5t14.5 -33.5q-124 -158 -257.5 -158t-186.5 131q-92 -64 -187.5 -97.5t-164 -33.5t-127 15t-108.5 48q-108 70 -108 231q0 86 47.5 150.5t129.5 101.5q157 71 375 77l116 4q7 81 7 128q0 106 -40.5 160
t-150.5 54q-66 0 -102.5 -46t-36.5 -136q0 -12 -34 -29q-57 -27 -113.5 -27t-90 32t-33.5 90t42 109t112 79q139 55 317 55q186 0 272 -59q78 -52 111 -149q39 -113 39 -288zM782 201q-13 73 -13 126.5t3 149.5l-139 -6q-107 0 -165 -52t-58 -130t34 -112t137.5 -34
t200.5 58zM565.5 1482q38.5 -35 38.5 -96.5t-47 -111t-109.5 -49.5t-102.5 36t-40 100.5t54 115.5q49 40 108.5 40t98 -35zM979 1502q39 -35 39 -96t-47 -111t-114 -50t-102.5 40t-35.5 101.5t54 110.5q49 40 108 40t98 -35z" />
    <glyph glyph-name="aring" unicode="&#xe5;" horiz-adv-x="1305" 
d="M1081 565l-6 -336v-10q0 -55 52 -55q40 0 85 26q14 -12 26.5 -33.5t14.5 -33.5q-124 -158 -257.5 -158t-186.5 131q-92 -64 -187.5 -97.5t-164 -33.5t-127 15t-108.5 48q-108 70 -108 231q0 86 47.5 150.5t129.5 101.5q157 71 375 77l116 4q7 81 7 128q0 106 -40.5 160
t-150.5 54q-66 0 -102.5 -46t-36.5 -136q0 -12 -34 -29q-57 -27 -113.5 -27t-90 32t-33.5 90t42 109t112 79q139 55 317 55q186 0 272 -59q78 -52 111 -149q39 -113 39 -288zM782 201q-13 73 -13 126.5t3 149.5l-139 -6q-107 0 -165 -52t-58 -130t34 -112t137.5 -34
t200.5 58zM841.5 1533q64.5 -56 64.5 -155.5t-72.5 -159t-171.5 -59.5t-163.5 58t-64.5 155.5t74.5 157t171.5 59.5t161.5 -56zM603.5 1437.5q-21.5 -26.5 -21.5 -69.5t29 -64.5t66.5 -21.5t60 27t22.5 65t-26.5 64t-67.5 26t-62.5 -26.5z" />
    <glyph glyph-name="ae" unicode="&#xe6;" horiz-adv-x="1874" 
d="M1224 199.5q99 -103.5 228 -103.5t262 113q49 -32 62 -78q-92 -107 -272 -153q-73 -19 -176 -19t-218 44t-195 128q-3 -2 -25 -18.5t-35.5 -26t-42.5 -27.5t-53 -29.5t-61 -26.5t-72 -23q-246 -61 -404 42q-108 70 -108 231q0 195 243 278q130 45 309 51l116 4
q7 80 7 129q0 108 -40.5 163.5t-150.5 55.5q-66 0 -102.5 -46t-36.5 -136q0 -12 -34 -29q-57 -27 -113.5 -27t-90 32t-33.5 90t42 109t112 79q139 55 317 55q224 0 318 -158q52 77 153 117.5t198 40.5t180 -26t149.5 -75.5t105.5 -129t39 -179.5q0 -171 -112 -180l-596 -16
q31 -152 130 -255.5zM1305 934q-228 0 -228 -350q315 8 451 28q6 36 6 69q0 119 -66 186t-163 67zM852 217q-63 108 -72 254l-147 -6q-108 -4 -165.5 -54.5t-57.5 -128t34 -111.5t113 -34q144 0 295 80z" />
    <glyph glyph-name="ccedilla" unicode="&#xe7;" horiz-adv-x="1165" 
d="M674 -367q125 0 125 74q0 28 -25 45q-42 29 -128 29q-54 0 -80 53l60 133q-226 17 -369.5 163t-143.5 370q0 302 223 466q143 105 348 105q173 0 301 -75q58 -34 93 -81t36 -98q0 -152 -158 -152q-54 0 -78 12.5t-24 14.5q3 19 3 39q0 94 -60.5 149.5t-162.5 55.5
t-164 -87.5t-62 -271.5t106.5 -325t237.5 -141q113 0 226 91q26 21 52 50q22 -14 45.5 -39.5t28.5 -48.5q-15 -22 -56.5 -58.5t-82.5 -61.5q-111 -68 -241 -77l-52 -98h17.5t29 -1t41.5 -3.5t47.5 -8t48 -13t45 -20t37.5 -28.5q35 -33 35 -84.5t-32.5 -89.5t-80.5 -58
q-98 -40 -164.5 -40t-115.5 11t-86 38.5t-37 64t24.5 53.5t55.5 17q1 0 5 -7.5t13.5 -18.5t23.5 -22q33 -26 95 -26z" />
    <glyph glyph-name="egrave" unicode="&#xe8;" horiz-adv-x="1196" 
d="M554 193q98 -91 229 -91t264 113q50 -33 61 -78q-92 -107 -272 -153q-73 -19 -168.5 -19t-197.5 34.5t-182.5 100.5t-127.5 173.5t-47 238.5t48 237.5t127 174.5q165 143 378 143q187 0 324 -101q66 -50 105.5 -129.5t39.5 -179.5q0 -171 -113 -180l-596 -45
q30 -148 128 -239zM800 873q-66 67 -173 67t-162 -100.5t-55 -278.5q249 27 450 57q6 36 6 69q0 119 -66 186zM756 1219q-36 -34 -99 -50q-219 279 -299 340q17 50 62 78.5t106 30.5q89 -4 163 -192q33 -83 67 -207z" />
    <glyph glyph-name="eacute" unicode="&#xe9;" horiz-adv-x="1196" 
d="M554 193q98 -91 229 -91t264 113q50 -33 61 -78q-92 -107 -272 -153q-73 -19 -168.5 -19t-197.5 34.5t-182.5 100.5t-127.5 173.5t-47 238.5t48 237.5t127 174.5q165 143 378 143q187 0 324 -101q66 -50 105.5 -129.5t39.5 -179.5q0 -171 -113 -180l-596 -45
q30 -148 128 -239zM800 873q-66 67 -173 67t-162 -100.5t-55 -278.5q249 27 450 57q6 36 6 69q0 119 -66 186zM592 1219q53 195 90 263.5t61 93.5q37 40 78 42q61 -2 106.5 -30.5t61.5 -78.5q-77 -59 -299 -340q-62 16 -98 50z" />
    <glyph glyph-name="ecircumflex" unicode="&#xea;" horiz-adv-x="1196" 
d="M554 193q98 -91 229 -91t264 113q50 -33 61 -78q-92 -107 -272 -153q-73 -19 -168.5 -19t-197.5 34.5t-182.5 100.5t-127.5 173.5t-47 238.5t48 237.5t127 174.5q165 143 378 143q187 0 324 -101q66 -50 105.5 -129.5t39.5 -179.5q0 -171 -113 -180l-596 -45
q30 -148 128 -239zM800 873q-66 67 -173 67t-162 -100.5t-55 -278.5q249 27 450 57q6 36 6 69q0 119 -66 186zM321 1239q76 133 190 248t160 115t159.5 -123t166.5 -228q-11 -24 -45.5 -47.5t-63.5 -29.5l-223 225l-235 -219q-27 5 -64.5 24t-44.5 35z" />
    <glyph glyph-name="edieresis" unicode="&#xeb;" horiz-adv-x="1196" 
d="M554 193q98 -91 229 -91t264 113q50 -33 61 -78q-92 -107 -272 -153q-73 -19 -168.5 -19t-197.5 34.5t-182.5 100.5t-127.5 173.5t-47 238.5t48 237.5t127 174.5q165 143 378 143q187 0 324 -101q66 -50 105.5 -129.5t39.5 -179.5q0 -171 -113 -180l-596 -45
q30 -148 128 -239zM800 873q-66 67 -173 67t-162 -100.5t-55 -278.5q249 27 450 57q6 36 6 69q0 119 -66 186zM565.5 1482q38.5 -35 38.5 -96.5t-47 -111t-109.5 -49.5t-102.5 36t-40 100.5t54 115.5q49 40 108.5 40t98 -35zM979 1502q39 -35 39 -96t-47 -111t-114 -50
t-102.5 40t-35.5 101.5t54 110.5q49 40 108 40t98 -35z" />
    <glyph glyph-name="igrave" unicode="&#xec;" horiz-adv-x="637" 
d="M229 811q0 76 -53 90q-27 9 -96 17q-7 29 -7 44.5t1 24.5q144 81 361 81q35 0 52 -1q28 -44 39 -172q8 -58 8 -180t-8 -717q-111 -19 -184.5 -19t-124.5 19q18 241 18 436.5t-6 376.5zM468 1219q-36 -34 -99 -50q-219 279 -299 340q17 50 62 78.5t106 30.5
q89 -4 163 -192q33 -83 67 -207z" />
    <glyph glyph-name="iacute" unicode="&#xed;" horiz-adv-x="637" 
d="M229 811q0 76 -53 90q-27 9 -96 17q-7 29 -7 44.5t1 24.5q144 81 361 81q35 0 52 -1q28 -44 39 -172q8 -58 8 -180t-8 -717q-111 -19 -184.5 -19t-124.5 19q18 241 18 436.5t-6 376.5zM170 1219q53 195 90 263.5t61 93.5q37 40 78 42q61 -2 106.5 -30.5t61.5 -78.5
q-77 -59 -299 -340q-62 16 -98 50z" />
    <glyph glyph-name="icircumflex" unicode="&#xee;" horiz-adv-x="637" 
d="M229 811q0 76 -53 90q-27 9 -96 17q-7 29 -7 44.5t1 24.5q144 81 361 81q35 0 52 -1q28 -44 39 -172q8 -58 8 -180t-8 -717q-111 -19 -184.5 -19t-124.5 19q18 241 18 436.5t-6 376.5zM-19 1239q76 133 190 248t160 115t159.5 -123t166.5 -228q-11 -24 -45.5 -47.5
t-63.5 -29.5l-223 225l-235 -219q-27 5 -64.5 24t-44.5 35z" />
    <glyph glyph-name="idieresis" unicode="&#xef;" horiz-adv-x="637" 
d="M229 811q0 76 -53 90q-27 9 -96 17q-7 29 -7 44.5t1 24.5q144 81 361 81q35 0 52 -1q28 -44 39 -172q8 -58 8 -180t-8 -717q-111 -19 -184.5 -19t-124.5 19q18 241 18 436.5t-6 376.5zM222.5 1482q38.5 -35 38.5 -96.5t-47 -111t-109.5 -49.5t-102.5 36t-40 100.5
t54 115.5q49 40 108.5 40t98 -35zM636 1502q39 -35 39 -96t-47 -111t-114 -50t-102.5 40t-35.5 101.5t54 110.5q49 40 108 40t98 -35z" />
    <glyph glyph-name="eth" unicode="&#xf0;" horiz-adv-x="1294" 
d="M829 1305q353 -279 353 -750q0 -279 -151 -438.5t-427 -159.5q-95 0 -184 39.5t-157 107t-109 165.5t-41 216.5t41.5 224t111.5 172.5q147 142 348 142q137 0 244 -109q-62 182 -184 302l-174 -99q-16 16 -33 47.5t-14 46.5q57 42 125 82q-70 44 -131.5 65.5t-67.5 24.5
q15 49 84 91q34 0 105.5 -24.5t150.5 -70.5q152 84 184 95q38 -44 55 -97zM920 481q0 83 -7 146q-18 116 -90.5 191t-197.5 75q-73 0 -124 -57q-93 -105 -93 -303.5t84 -324.5t204 -126q97 0 160.5 118.5t63.5 280.5z" />
    <glyph glyph-name="ntilde" unicode="&#xf1;" horiz-adv-x="1432" 
d="M939 217l10 381q0 130 -8.5 164t-21.5 51q-28 35 -82 35t-92 -12q-78 -26 -200 -146q0 -130 -6 -692q-111 -19 -185 -19t-125 19q18 243 18 448.5t-5 354.5q0 76 -54 90q-34 11 -96 16q-6 26 -6 41.5t4 28.5q144 81 358 81q35 0 52 -1q39 -67 43 -230q187 240 438 240
q116 0 181.5 -78.5t74.5 -212.5q4 -61 4 -122t-6 -132q-17 -216 -17 -331q0 -26 37 -40t72.5 -14t48.5 4q12 -27 12 -49.5t-2 -30.5q-187 -97 -279 -97t-130 62.5t-38 190.5zM1149 1501q37 -14 57 -61q-33 -104 -93.5 -155.5t-140 -51.5t-194.5 44t-163.5 44t-98 -25
t-72.5 -63q-25 11 -57 61q32 101 94 148t150.5 48t184.5 -34t165 -35q106 0 168 80z" />
    <glyph glyph-name="ograve" unicode="&#xf2;" horiz-adv-x="1386" 
d="M1274 544q0 -131 -47 -246t-133 -188q-173 -147 -457 -147q-142 0 -262 67t-191 187.5t-71 288t86 301.5q169 264 567 264q200 0 351 -137q157 -143 157 -390zM507 216q99 -128 232 -128q246 0 246 401q0 199 -91 323t-232 124q-71 0 -123 -36t-79 -97q-52 -117 -52 -288
t99 -299zM834 1219q-36 -34 -99 -50q-219 279 -299 340q17 50 62 78.5t106 30.5q89 -4 163 -192q33 -83 67 -207z" />
    <glyph glyph-name="oacute" unicode="&#xf3;" horiz-adv-x="1386" 
d="M1274 544q0 -131 -47 -246t-133 -188q-173 -147 -457 -147q-142 0 -262 67t-191 187.5t-71 288t86 301.5q169 264 567 264q200 0 351 -137q157 -143 157 -390zM507 216q99 -128 232 -128q246 0 246 401q0 199 -91 323t-232 124q-71 0 -123 -36t-79 -97q-52 -117 -52 -288
t99 -299zM588 1219q53 195 90 263.5t61 93.5q37 40 78 42q61 -2 106.5 -30.5t61.5 -78.5q-77 -59 -299 -340q-62 16 -98 50z" />
    <glyph glyph-name="ocircumflex" unicode="&#xf4;" horiz-adv-x="1386" 
d="M1274 544q0 -131 -47 -246t-133 -188q-173 -147 -457 -147q-142 0 -262 67t-191 187.5t-71 288t86 301.5q169 264 567 264q200 0 351 -137q157 -143 157 -390zM507 216q99 -128 232 -128q246 0 246 401q0 199 -91 323t-232 124q-71 0 -123 -36t-79 -97q-52 -117 -52 -288
t99 -299zM354 1239q76 133 190 248t160 115t159.5 -123t166.5 -228q-11 -24 -45.5 -47.5t-63.5 -29.5l-223 225l-235 -219q-27 5 -64.5 24t-44.5 35z" />
    <glyph glyph-name="otilde" unicode="&#xf5;" horiz-adv-x="1386" 
d="M1274 544q0 -131 -47 -246t-133 -188q-173 -147 -457 -147q-142 0 -262 67t-191 187.5t-71 288t86 301.5q169 264 567 264q200 0 351 -137q157 -143 157 -390zM507 216q99 -128 232 -128q246 0 246 401q0 199 -91 323t-232 124q-71 0 -123 -36t-79 -97q-52 -117 -52 -288
t99 -299zM1047 1501q37 -14 57 -61q-33 -104 -93.5 -155.5t-140 -51.5t-194.5 44t-163.5 44t-98 -25t-72.5 -63q-25 11 -57 61q32 101 94 148t150.5 48t184.5 -34t165 -35q106 0 168 80z" />
    <glyph glyph-name="odieresis" unicode="&#xf6;" horiz-adv-x="1386" 
d="M1274 544q0 -131 -47 -246t-133 -188q-173 -147 -457 -147q-142 0 -262 67t-191 187.5t-71 288t86 301.5q169 264 567 264q200 0 351 -137q157 -143 157 -390zM507 216q99 -128 232 -128q246 0 246 401q0 199 -91 323t-232 124q-71 0 -123 -36t-79 -97q-52 -117 -52 -288
t99 -299zM601.5 1482q38.5 -35 38.5 -96.5t-47 -111t-109.5 -49.5t-102.5 36t-40 100.5t54 115.5q49 40 108.5 40t98 -35zM1015 1502q39 -35 39 -96t-47 -111t-114 -50t-102.5 40t-35.5 101.5t54 110.5q49 40 108 40t98 -35z" />
    <glyph glyph-name="divide" unicode="&#xf7;" horiz-adv-x="1128" 
d="M475 1189q47 45 103.5 45t92.5 -33.5t36 -94t-46.5 -103t-101.5 -42.5t-93 34.5t-38 91.5t47 102zM479 471q48 39 103 39t90 -33.5t35 -94.5t-52 -110q-41 -35 -95.5 -35t-93 35.5t-38.5 94t51 104.5zM871 816l116 -1q6 -23 6 -75t-12 -83h-838q-10 13 -10 74t12 78
q317 7 726 7z" />
    <glyph glyph-name="oslash" unicode="&#xf8;" horiz-adv-x="1386" 
d="M1217 801q57 -107 57 -247.5t-47 -255.5t-133 -188q-173 -147 -457 -147q-99 0 -190 34l-68 -116q-7 -3 -24.5 -3t-44.5 5q-66 11 -74 25q15 37 84 158q-96 72 -151.5 180.5t-55.5 238.5q0 188 86 322q169 264 567 264q86 0 168 -29q39 70 57 97h16t38 -4q62 -9 94 -29
l-77 -129q98 -69 155 -176zM985 489q0 162 -64 280l-359 -612q80 -69 177 -69q246 0 246 401zM465 283q204 352 354 603q-72 50 -150 50t-130 -36t-79 -97q-52 -117 -52 -261.5t57 -258.5z" />
    <glyph glyph-name="ugrave" unicode="&#xf9;" horiz-adv-x="1372" 
d="M138 908q-66 0 -66 57q0 16 2 24q35 25 171 48.5t220 23.5q31 -101 31 -227t-12.5 -287.5t-12.5 -227.5t20 -106.5t82.5 -40.5t129 30.5t169.5 112.5q0 308 2 732q115 18 185.5 18t122.5 -18q-15 -219 -15 -420.5t11 -419.5q2 -33 13 -51t57.5 -21t64.5 -10q4 -21 4 -68
q-87 -49 -175 -70.5t-149 -21.5t-83.5 45t-35.5 180q-244 -225 -466 -225t-222 352l17 529q0 34 -20.5 48t-44.5 14zM807 1219q-36 -34 -99 -50q-219 279 -299 340q17 50 62 78.5t106 30.5q89 -4 163 -192q33 -83 67 -207z" />
    <glyph glyph-name="uacute" unicode="&#xfa;" horiz-adv-x="1372" 
d="M138 908q-66 0 -66 57q0 16 2 24q35 25 171 48.5t220 23.5q31 -101 31 -227t-12.5 -287.5t-12.5 -227.5t20 -106.5t82.5 -40.5t129 30.5t169.5 112.5q0 308 2 732q115 18 185.5 18t122.5 -18q-15 -219 -15 -420.5t11 -419.5q2 -33 13 -51t57.5 -21t64.5 -10q4 -21 4 -68
q-87 -49 -175 -70.5t-149 -21.5t-83.5 45t-35.5 180q-244 -225 -466 -225t-222 352l17 529q0 34 -20.5 48t-44.5 14zM561 1219q53 195 90 263.5t61 93.5q37 40 78 42q61 -2 106.5 -30.5t61.5 -78.5q-77 -59 -299 -340q-62 16 -98 50z" />
    <glyph glyph-name="ucircumflex" unicode="&#xfb;" horiz-adv-x="1372" 
d="M138 908q-66 0 -66 57q0 16 2 24q35 25 171 48.5t220 23.5q31 -101 31 -227t-12.5 -287.5t-12.5 -227.5t20 -106.5t82.5 -40.5t129 30.5t169.5 112.5q0 308 2 732q115 18 185.5 18t122.5 -18q-15 -219 -15 -420.5t11 -419.5q2 -33 13 -51t57.5 -21t64.5 -10q4 -21 4 -68
q-87 -49 -175 -70.5t-149 -21.5t-83.5 45t-35.5 180q-244 -225 -466 -225t-222 352l17 529q0 34 -20.5 48t-44.5 14zM348 1239q76 133 190 248t160 115t159.5 -123t166.5 -228q-11 -24 -45.5 -47.5t-63.5 -29.5l-223 225l-235 -219q-27 5 -64.5 24t-44.5 35z" />
    <glyph glyph-name="udieresis" unicode="&#xfc;" horiz-adv-x="1372" 
d="M138 908q-66 0 -66 57q0 16 2 24q35 25 171 48.5t220 23.5q31 -101 31 -227t-12.5 -287.5t-12.5 -227.5t20 -106.5t82.5 -40.5t129 30.5t169.5 112.5q0 308 2 732q115 18 185.5 18t122.5 -18q-15 -219 -15 -420.5t11 -419.5q2 -33 13 -51t57.5 -21t64.5 -10q4 -21 4 -68
q-87 -49 -175 -70.5t-149 -21.5t-83.5 45t-35.5 180q-244 -225 -466 -225t-222 352l17 529q0 34 -20.5 48t-44.5 14zM595.5 1482q38.5 -35 38.5 -96.5t-47 -111t-109.5 -49.5t-102.5 36t-40 100.5t54 115.5q49 40 108.5 40t98 -35zM1009 1502q39 -35 39 -96t-47 -111
t-114 -50t-102.5 40t-35.5 101.5t54 110.5q49 40 108 40t98 -35z" />
    <glyph glyph-name="yacute" unicode="&#xfd;" horiz-adv-x="1282" 
d="M246 -283q11 -41 38.5 -73.5t67.5 -32.5q65 0 121 85.5t96 240.5q-20 57 -111.5 257t-215.5 426q-139 252 -204 274q-15 5 -32.5 6t-31 2t-17.5 1q-7 49 -7 55.5t1 14.5q161 90 300 90q59 0 114 -23t143.5 -233.5t200.5 -620.5q131 442 204 717q21 80 74.5 121t104.5 41
q148 0 188 -115q-12 0 -47.5 -37.5t-77.5 -102t-92.5 -174.5t-93 -226t-92.5 -247.5t-96.5 -251t-103.5 -230.5t-114 -191.5t-128 -129t-137.5 -48.5t-110 18.5t-67.5 49.5q-46 63 -46 136.5t49.5 128.5t122.5 72zM563 1219q53 195 90 263.5t61 93.5q37 40 78 42
q61 -2 106.5 -30.5t61.5 -78.5q-77 -59 -299 -340q-62 16 -98 50z" />
    <glyph glyph-name="thorn" unicode="&#xfe;" horiz-adv-x="1425" 
d="M539 961q146 104 319 104q234 0 354.5 -129.5t120.5 -364.5q0 -212 -99 -347q-193 -265 -554 -265q-88 0 -143 4l-7 -618q-91 -16 -164 -16t-130 22q23 239 23 976t-21 945q-4 50 -39 79.5t-88 34.5q-9 23 -9 38q0 21 2 32q193 74 382 74h18q23 -31 33 -162q0 -4 1 -68
q1 -194 1 -339zM539 815q0 -428 -2 -719q75 -10 143 -10q131 0 234 108q113 120 113 331.5t-63.5 297.5t-169.5 86t-255 -94z" />
    <glyph glyph-name="ydieresis" unicode="&#xff;" horiz-adv-x="1282" 
d="M246 -283q11 -41 38.5 -73.5t67.5 -32.5q65 0 121 85.5t96 240.5q-20 57 -111.5 257t-215.5 426q-139 252 -204 274q-15 5 -32.5 6t-31 2t-17.5 1q-7 49 -7 55.5t1 14.5q161 90 300 90q59 0 114 -23t143.5 -233.5t200.5 -620.5q131 442 204 717q21 80 74.5 121t104.5 41
q148 0 188 -115q-12 0 -47.5 -37.5t-77.5 -102t-92.5 -174.5t-93 -226t-92.5 -247.5t-96.5 -251t-103.5 -230.5t-114 -191.5t-128 -129t-137.5 -48.5t-110 18.5t-67.5 49.5q-46 63 -46 136.5t49.5 128.5t122.5 72zM618.5 1482q38.5 -35 38.5 -96.5t-47 -111t-109.5 -49.5
t-102.5 36t-40 100.5t54 115.5q49 40 108.5 40t98 -35zM1032 1502q39 -35 39 -96t-47 -111t-114 -50t-102.5 40t-35.5 101.5t54 110.5q49 40 108 40t98 -35z" />
    <glyph glyph-name="dotlessi" unicode="&#x131;" horiz-adv-x="637" 
d="M229 811q0 76 -53 90q-27 9 -96 17q-7 29 -7 44.5t1 24.5q144 81 361 81q35 0 52 -1q28 -44 39 -172q8 -58 8 -180t-8 -717q-111 -19 -184.5 -19t-124.5 19q18 241 18 436.5t-6 376.5z" />
    <glyph glyph-name="OE" unicode="&#x152;" horiz-adv-x="2253" 
d="M725.5 147.5q82.5 -43.5 164.5 -43.5q158 0 253 86q26 254 26 529.5t-53 482.5q-116 119 -271 119q-171 0 -271 -117q-128 -150 -128 -459q0 -300 134 -473q63 -81 145.5 -124.5zM1430 143q64 0 464 25v121q17 33 78 47q24 6 53 6q74 0 105 -59t31 -205q0 -54 -3 -71.5
t-14 -26.5q-344 15 -632.5 17t-368.5 3l-25 -8q-119 -40 -254.5 -40t-269.5 50.5t-239 141.5t-168.5 230t-63.5 304q0 310 143 502t412 264q98 25 194 25q162 0 312 -62q450 12 960 47q11 -9 14 -27t3 -71q0 -146 -31 -205t-116.5 -59t-119.5 53v121q-292 14 -464 14
q24 -110 32 -479l430 22q17 -20 17 -81.5t-11 -112.5q-55 -8 -155.5 -8t-280.5 20q-8 -388 -32 -498z" />
    <glyph glyph-name="oe" unicode="&#x153;" horiz-adv-x="2058" 
d="M1538 -41q-274 0 -422 172q-161 -174 -479 -174q-142 0 -262 66.5t-191 186.5t-71 287.5t86 302.5q170 265 567 265q106 0 203 -43t166 -123q73 78 173 120t200.5 42t183.5 -26t149.5 -75.5t106 -129t39.5 -179.5q0 -171 -113 -180l-614 -45q29 -146 135.5 -238t238 -92
t264.5 113q51 -33 62 -78q-92 -107 -272 -153q-73 -19 -150 -19zM507 208.5q99 -126.5 232 -126.5q246 0 246 399q0 199 -91 324t-232 125q-71 0 -123 -36.5t-79 -97.5q-52 -117 -52 -289t99 -298.5zM1652 867q-66 67 -174 67t-171.5 -103t-63.5 -276q272 28 469 57
q6 36 6 69q0 119 -66 186z" />
    <glyph glyph-name="circumflex" unicode="&#x2c6;" horiz-adv-x="776" 
d="M45 1239q76 133 190 248t160 115t159.5 -123t166.5 -228q-11 -24 -45.5 -47.5t-63.5 -29.5l-223 225l-235 -219q-27 5 -64.5 24t-44.5 35z" />
    <glyph glyph-name="caron" unicode="&#x2c7;" horiz-adv-x="772" 
d="M47 1546q7 16 41.5 33t63.5 23l237 -222l227 215q28 -6 56 -27t41 -46q-54 -106 -163 -226t-155 -120t-158.5 118t-189.5 252z" />
    <glyph glyph-name="ring" unicode="&#x2da;" horiz-adv-x="711" 
d="M513.5 1533q64.5 -56 64.5 -155.5t-72.5 -159t-171.5 -59.5t-163.5 58t-64.5 155.5t74.5 157t171.5 59.5t161.5 -56zM275.5 1437.5q-21.5 -26.5 -21.5 -69.5t29 -64.5t66.5 -21.5t60 27t22.5 65t-26.5 64t-67.5 26t-62.5 -26.5z" />
    <glyph glyph-name="tilde" unicode="&#x2dc;" horiz-adv-x="1081" 
d="M887 1501q37 -14 57 -61q-33 -104 -93.5 -155.5t-140 -51.5t-194.5 44t-163.5 44t-98 -25t-72.5 -63q-25 11 -57 61q32 101 94 148t150.5 48t184.5 -34t165 -35q106 0 168 80z" />
    <glyph glyph-name="endash" unicode="&#x2013;" horiz-adv-x="1047" 
d="M899 686h-756q-8 8 -8 73t10 77q120 15 407 15t353 -9q6 -23 6 -74t-12 -82z" />
    <glyph glyph-name="emdash" unicode="&#x2014;" horiz-adv-x="1389" 
d="M1241 686h-1098q-10 13 -10 67.5t12 71.5q140 18 572.5 18t529.5 -12q6 -23 6 -68.5t-12 -76.5z" />
    <glyph glyph-name="quoteleft" unicode="&#x2018;" horiz-adv-x="444" 
d="M297 1354q30 0 73.5 -36.5t43.5 -103t-49 -121.5t-117 -55t-112 39t-44 125t79.5 197t182.5 143q34 -18 37 -55q-37 -29 -64.5 -71.5t-29.5 -61.5z" />
    <glyph glyph-name="quoteright" unicode="&#x2019;" horiz-adv-x="485" 
d="M188 1184q-29 0 -72.5 36.5t-43.5 103t49 121t116.5 54.5t111.5 -39t44 -106.5t-35.5 -142.5t-97 -135t-129.5 -81q-34 20 -37 56q38 29 65 71t29 62z" />
    <glyph glyph-name="quotesinglbase" unicode="&#x201a;" horiz-adv-x="444" 
d="M147 -25q-29 0 -72.5 36.5t-43.5 103t49 121.5t117 55t111.5 -39t43.5 -125t-79.5 -197t-182.5 -143q-34 19 -37 55q38 29 65 71.5t29 61.5z" />
    <glyph glyph-name="quotedblleft" unicode="&#x201c;" horiz-adv-x="803" 
d="M297 1354q30 0 73.5 -36.5t43.5 -103t-49 -121.5t-117 -55t-112 39t-44 125t79.5 197t182.5 143q34 -18 37 -55q-37 -29 -64.5 -71.5t-29.5 -61.5zM655 1354q30 0 73.5 -36.5t43.5 -103t-49 -121.5t-117 -55t-111.5 39t-43.5 107t35.5 142.5t96.5 134.5t130 81
q34 -19 37 -55q-38 -29 -65.5 -71.5t-29.5 -61.5z" />
    <glyph glyph-name="quotedblright" unicode="&#x201d;" horiz-adv-x="803" 
d="M506 1227q-30 0 -73.5 36.5t-43.5 102.5t49 121t117 55t112 -39t44 -106.5t-35.5 -142.5t-97 -135t-129.5 -81q-34 19 -37 56q37 29 64.5 71.5t29.5 61.5zM147 1227q-29 0 -72.5 36.5t-43.5 103t49 121t117 54.5t111.5 -39t43.5 -106.5t-35.5 -142.5t-97 -135t-129.5 -81
q-34 20 -37 56q38 29 65 71t29 62z" />
    <glyph glyph-name="quotedblbase" unicode="&#x201e;" horiz-adv-x="803" 
d="M506 -25q-30 0 -73.5 36.5t-43.5 103t49 121.5t117 55t112 -39t44 -125t-79.5 -197t-182.5 -143q-34 18 -37 55q37 29 64.5 71.5t29.5 61.5zM147 -25q-29 0 -72.5 36.5t-43.5 103t49 121.5t117 55t111.5 -39t43.5 -125t-79.5 -197t-182.5 -143q-34 19 -37 55
q38 29 65 71.5t29 61.5z" />
    <glyph glyph-name="bullet" unicode="&#x2022;" horiz-adv-x="913" 
d="M645 434q-87 -76 -215.5 -76t-212.5 91q-62 69 -62 154q0 163 109 263q99 85 228.5 85t205.5 -89q61 -65 61 -152q0 -168 -114 -276z" />
    <glyph glyph-name="guilsinglleft" unicode="&#x2039;" horiz-adv-x="784" 
d="M326 419q-116 115 -153.5 166t-37.5 90.5t35 84.5q97 125 428 422q25 -8 52.5 -36.5t41.5 -58.5q-218 -235 -251 -275.5t-53.5 -67.5t-29 -45t-8.5 -29t4.5 -24.5t15.5 -32t21.5 -35.5t30.5 -42.5t35.5 -44.5t43 -51t45 -52.5t50 -58t51.5 -59.5q-10 -22 -32.5 -43
t-49.5 -28q-123 105 -239 220z" />
    <glyph glyph-name="guilsinglright" unicode="&#x203a;" horiz-adv-x="784" 
d="M614 760q36 -44 36 -84t-38.5 -91.5t-155 -166.5t-237.5 -219q-53 14 -82 71q19 22 51.5 59.5t50 58t45 52.5t43 51t35.5 44.5t30.5 42.5t21.5 35.5t15.5 32t4.5 24.5t-8.5 29t-29 45t-40 51t-56.5 65t-62 68q-48 54 -146 159q15 31 42 59t52 36q331 -297 428 -422z" />
    <glyph glyph-name="fraction" unicode="&#x2044;" horiz-adv-x="717" 
d="M803 1524l-719 -1614q-16 -10 -74.5 -10t-70.5 12q28 108 322.5 765.5t389.5 852.5q26 6 75 6t77 -12z" />
    <glyph glyph-name="foursuperior" unicode="&#x2074;" horiz-adv-x="856" 
d="M78 754q-30 44 -30 122q0 16 3 27q68 74 202 287t161 254q57 8 108 8t109 -8q13 -7 13 -63l-7 -210v-278q67 3 100 22q27 -13 27 -55t-32 -71.5t-93 -36.5q3 -85 10 -148q-66 -18 -133 -18t-96 18q6 76 8 150q-192 16 -237.5 16t-112.5 -16zM434 899l-2 375
q-126 -236 -242 -367h29q4 0 215 -8z" />
    <glyph glyph-name="Euro" unicode="&#x20ac;" horiz-adv-x="1534" 
d="M784 244.5q113 -105.5 272 -105.5t306 127q60 -29 80 -100q-198 -207 -508 -207q-262 0 -436.5 154t-210.5 448l-154 4q-10 13 -10 53.5t12 57.5q46 5 144 12v19q0 57 6 116l-152 4q-10 13 -10 53.5t12 57.5q91 9 176 14q69 240 258 382.5t459 142.5q206 0 381 -82
q24 -17 24 -47t-6 -52l-98 -249q-30 -5 -83 -5t-91.5 35.5t-38.5 94.5t25 112q-51 37 -144 37h-14q-136 0 -228 -85t-124 -269q95 4 234.5 4t193.5 -6q6 -23 6 -75t-12 -83l-439 8v-108q86 2 196 2t167 -7q6 -22 6 -74t-12 -83l-338 6q38 -201 151 -306.5z" />
    <glyph glyph-name="minus" unicode="&#x2212;" horiz-adv-x="1128" 
d="M871 816l116 -1q6 -23 6 -75t-12 -83h-838q-10 13 -10 74t12 78q317 7 726 7z" />
    <glyph glyph-name="acute.case" horiz-adv-x="721" 
d="M115 1634q247 263 382 263q48 0 94 -49t46 -109q0 -12 -2 -25q-34 -4 -162 -50t-295 -118q-49 44 -63 88z" />
    <glyph glyph-name="grave.case" horiz-adv-x="926" 
d="M709 1636q-16 -47 -64 -88q-335 144 -426 160l-31 6q-2 13 -2 41.5t26 67.5t58.5 57t57.5 18q137 0 381 -262z" />
    <glyph glyph-name="circumflex.case" horiz-adv-x="961" 
d="M115 1665q281 268 366 268q45 0 150 -77.5t221 -190.5q-7 -26 -36 -56t-58 -44l-285 178l-272 -174q-23 10 -51 39.5t-35 56.5z" />
    <glyph glyph-name="dieresis.case" horiz-adv-x="993" 
d="M401 1860.5q39 -35.5 39 -96.5t-46.5 -110.5t-109.5 -49.5t-103 36t-40 101t54 114q50 41 108.5 41t97.5 -35.5zM845.5 1881q38.5 -35 38.5 -96.5t-47 -111t-114 -49.5t-102 38.5t-35 102t53 111.5q49 40 108.5 40t98 -35z" />
    <glyph glyph-name="tilde.case" horiz-adv-x="1049" 
d="M877 1886q37 -14 57 -61q-33 -104 -93.5 -155.5t-140 -51.5t-194.5 44t-163.5 44t-98 -25t-72.5 -63q-25 11 -57 61q32 101 94 148t150.5 48t184 -34t165.5 -35q106 0 168 80z" />
    <glyph glyph-name="caron.case" horiz-adv-x="907" 
d="M72 1847q7 27 28 49.5t43 32.5l285 -178l287 182q31 -14 59 -41.5t35 -52.5q-116 -113 -221 -190.5t-149 -77.5t-127 63.5t-240 212.5z" />
    <glyph glyph-name="foundryicon" horiz-adv-x="3568" 
d="M999 135q66 18 66 294q0 163 -30 347q-21 130 -21 133q9 1 40 1t96.5 -29t102.5 -68q23 -193 23 -367.5t-16.5 -319t-53.5 -271.5t-90.5 -219t-132 -145.5t-177.5 -53.5t-138 55t-39 153t30 201q128 0 203 -75q-14 -114 -14 -167t10 -93q80 51 114 119q49 101 66 224
q10 75 27 220q-8 -14 -25.5 -25.5t-35.5 -11.5q-137 0 -209 147q-26 -75 -83.5 -127.5t-150.5 -52.5q-226 0 -345 202q-95 163 -95 400q0 257 68 478q73 237 235 378q119 -24 158.5 -49t67 -50t44.5 -55q39 -74 39 -173q0 -136 -129 -246q-23 -25 -22 -7q1 7 3.5 22t2.5 69
t-20.5 136t-43.5 110q-55 -51 -95 -230t-40 -370.5t40 -336t124 -204.5q120 40 203 221q-37 120 -37 289.5t39 242.5q143 -28 194 -75q-6 -103 -6 -203q0 -250 53 -418zM1286 850q84 -5 134 -16t85 -50q55 -98 66 -241q76 142 96 205q0 64 31 131q157 -16 194 -84
q-18 -98 -18 -187t10 -145q-34 -10 -66 -10q-110 0 -130 133q-8 -21 -47 -82.5t-50 -104.5q0 -182 -19 -242q-42 -133 -144 -133q-14 0 -29 3q-1 16 -7.5 126t-9.5 151.5t-12 140t-19 155.5q-28 159 -65 250zM2552 113q89 76 94 143q-32 132 -32 255t3 159
q-34 -42 -60.5 -157.5t-26.5 -222.5t22 -177zM3154 535q49 71 76.5 206.5t27.5 246t-12 171.5q-77 -313 -92 -624zM2177 690q-55 -166 -55 -375q43 6 66.5 75t23.5 149.5t-35 150.5zM2556 37q-150 0 -184 127q-75 -117 -185 -127q-95 0 -159 49q-116 90 -116 295
q0 129 23.5 256.5t63.5 193.5q24 2 36 2t36 -2q-21 41 -33 82q-132 27 -291 217q-17 16 -107 34q-124 25 -124 55q0 10 10 10q3 -4 128 -15.5t156 -11.5q50 10 123 23t115 21.5t68 14.5t52 13q51 13 64 26q12 44 45.5 69.5t71.5 25.5t57 -13l35 13l2 -2l-8 -39h35v-2
l-29 -35q-11 -23 -31 -70.5t-35.5 -84t-42.5 -83t-54 -77.5q-68 -78 -154 -91q47 -98 55 -106q119 -59 119 -234q0 -157 -78 -260q-40 -53 -94 -69q27 -113 67 -140q87 36 152 195v109q10 253 133 385q72 0 145 -27q2 5 11 42q22 95 35 103l19 2q37 0 88.5 -21.5t72.5 -43.5
q-29 -203 -29 -409t39 -341q3 -1 7.5 -1t11 3t13 8.5t12 11.5t12 15.5t11.5 16.5t11 17.5t9 16t8.5 15.5t6.5 12l-6 29q-37 176 -37 392.5t43.5 428.5t124.5 358q176 -29 240.5 -115.5t64.5 -277.5q0 -269 -105 -458q-55 -97 -128 -130q0 -217 86 -342q129 97 190 346
q9 4 29 4q1 -14 1 -62.5t-12 -110.5t-38.5 -123t-78.5 -97.5t-124 -36.5q-148 0 -221 125q-13 -51 -49 -88t-87 -37t-95 39t-66 88q-10 -41 -52 -71t-85 -35zM2148 817q-32 44 -51 92h-31l25 -80q53 -11 57 -12z" />
  </font>
</defs>
</svg>
